<svg id="Camada_1" data-name="Camada 1" xmlns="http://www.w3.org/2000/svg" viewBox="0 0 1080 1080">
  <defs>
    <style>
      .cls-1 {
        fill: #f4f4f4;
      }

      .cls-2 {
        fill: #f4cb4a;
      }

      .cls-3 {
        fill: #1a1a1a;
      }
    </style>
  </defs>
  <g>
    <g>
      <path class="cls-1" d="M498.66,505.74C384.94,496.33,292,437.13,263.05,352.18c-2.28-6.7-31.74-97.19,15.65-147.12,37.84-39.86,108.38-36.69,155.87-9.77,106.08,60.12,134.12,259.63,134.12,259.64h0Z"/>
      <path d="M498.88,506.56l-.29,0C383.65,497,290.9,436.54,262.3,352.44,261,348.49,230,255.23,278.13,204.52,316.29,164.3,387.84,167.89,435,194.6,539.7,254,568.31,446.64,569.48,454.81l.06.47-.38.29ZM357.26,176c-29.59,0-58.3,8.9-78,29.64-47.48,50-16.8,142.41-15.47,146.32,28.38,83.43,120.45,143.46,234.63,153l69.41-50.36c-1.92-13.13-31.08-200.46-133.66-258.6C412,183.38,384.24,176,357.26,176Z"/>
    </g>
    <g>
      <path class="cls-1" d="M648.47,463.62c78.1-83.18,107.47-189.43,72-271.85-2.8-6.51-41.56-93.42-110.19-98.73-54.8-4.24-105,45.39-122.25,97.18-38.46,115.72,74.41,282.61,74.41,282.62h0Z"/>
      <path d="M562,473.68l-.27-.4c-4.61-6.86-112.49-169-74.5-283.3,17.08-51.4,67.83-102,123.06-97.73,69.72,5.4,109.21,95.38,110.86,99.21C756.31,273,728,380.09,649.05,464.17l-.2.21Zm41.71-380.1c-52,0-98.76,48.09-115,96.89C469.05,249.81,490.1,323,511.24,373.9A620.78,620.78,0,0,0,562.83,472l85.26-9.13C726.45,379.28,754.58,273,719.74,192.08,718.1,188.29,679,99.15,610.21,93.83,608.05,93.67,605.9,93.58,603.75,93.58Z"/>
    </g>
    <g>
      <path class="cls-1" d="M606.28,433.41C652.06,328.89,738.22,260.12,828,260.34c7.08,0,102.23,1.5,134.09,62.52,25.44,48.72-.44,114.41-41.3,150.61-91.28,80.85-289.11,42.67-289.11,42.67h0Z"/>
      <path d="M736.76,525.94a618.19,618.19,0,0,1-105.27-9l-.47-.09-.15-.46-25.44-83,.12-.27c46.2-105.47,133.29-173.54,222-173.54H828c4.17,0,102.43,1,134.79,62.94,25.66,49.15-.93,115.66-41.48,151.57-47.18,41.8-123.16,51.27-178.59,51.85ZM632.25,515.46a625.77,625.77,0,0,0,110.4,8.86c55.16-.58,130.74-10,177.56-51.45,40.09-35.5,66.43-101.19,41.13-149.65C929.41,262.08,832.07,261.14,828,261.13h-.43c-88,0-174.42,67.58-220.4,172.32Z"/>
    </g>
    <g>
      <path class="cls-1" d="M636.39,508.15c103.25-48.57,213.38-43.65,280.8,15.56,5.32,4.67,76,68.4,59.83,135.31-12.91,53.43-75.63,85.86-130.21,86.23C724.88,746.06,601,587.13,601,587.13h0Z"/>
      <path d="M845.87,746.05c-120.07,0-240.37-151.94-245.45-158.42l-.29-.38.18-.45,35.48-79.24.26-.13C740.41,458.34,851,464.5,917.71,523.11c3.13,2.76,76.49,68.16,60.08,136.1-13,53.89-76.82,86.47-131,86.83ZM602,587c8.2,10.4,126.31,157.45,243.91,157.45h.94c53.54-.36,116.6-32.49,129.44-85.62,16.19-67-56.48-131.81-59.58-134.53-66.21-58.16-176-64.25-279.67-15.57Z"/>
    </g>
    <g>
      <path class="cls-1" d="M534.13,600.8c-32.69,109.32-11.46,217.49,57.11,275.37,5.41,4.56,78.93,65,142.7,39.06,50.92-20.71,73.67-87.55,65.92-141.58C782.55,653,607,554.11,607,554.1h0Z"/>
      <path d="M700.16,922.4c-54.62,0-106.79-43.4-109.43-45.63-67.88-57.29-90.4-165.7-57.36-276.2l.09-.28.25-.16,73.25-47,.41.24a618.25,618.25,0,0,1,90.53,65c41.93,36.31,93.8,92.71,102.75,155.14,7.69,53.61-15,121.54-66.41,142.42A89.7,89.7,0,0,1,700.16,922.4ZM534.81,601.31c-32.74,109.79-10.4,217.42,56.94,274.25,2.61,2.2,54.38,45.25,108.37,45.26a88.28,88.28,0,0,0,33.52-6.33c50.64-20.59,73-87.72,65.44-140.73-8.88-61.94-60.49-118-102.22-154.16A619.08,619.08,0,0,0,607,555Z"/>
    </g>
    <g>
      <path class="cls-1" d="M542.29,597c37.26,107.84,20.61,216.82-45.47,277.52-5.21,4.8-76.13,68.26-140.93,45C304.15,901,278.6,835.2,284.07,780.89c12.22-121.32,183.47-227.47,183.47-227.47h0Z"/>
      <path d="M385.69,925.4a88.48,88.48,0,0,1-30.07-5.09c-52.19-18.7-77.77-85.61-72.34-139.5,6.32-62.78,55.81-121.33,96.21-159.4a617.41,617.41,0,0,1,87.63-68.66l.41-.26.41.24,75,43.74.1.28c37.66,109,19.73,218.27-45.68,278.37C494.75,877.51,441.87,925.4,385.69,925.4Zm81.87-371.06a618.75,618.75,0,0,0-87,68.23c-40.21,37.88-89.45,96.1-95.72,158.4-5.37,53.28,19.84,119.41,71.3,137.85,64.92,23.27,137.08-42.08,140.13-44.87,64.89-59.61,82.68-168.09,45.35-276.41Z"/>
    </g>
    <g>
      <path class="cls-1" d="M528.51,606.38c-84,78-192.33,106.79-277.3,70.6-6.7-2.86-96.32-42.39-102.84-111.4C143.17,510.47,193.2,460.3,246,443.33,363.88,405.43,536.58,520,536.59,520h0Z"/>
      <path d="M329.19,693.14c-27.41,0-53.89-5-78.29-15.44-3.94-1.68-96.7-42-103.32-112.05-5.25-55.59,45.79-106.23,98.15-123.07,61-19.61,136.75,2.18,189.56,23.91A654.93,654.93,0,0,1,537,519.3l.4.26,0,.48-8.11,86.72-.22.2C468.8,662.91,396.28,693.14,329.19,693.14ZM298.55,436.51c-18.05,0-35.74,2.24-52.33,7.58C194.45,460.73,144,510.7,149.16,565.5c6.53,69.16,98.46,109.08,102.37,110.75,83.45,35.55,191.85,8,276.22-70.24l8-85.65A657.42,657.42,0,0,0,434.68,468C396.52,452.25,346.34,436.51,298.55,436.51Z"/>
    </g>
    <circle class="cls-2" cx="574.67" cy="567.73" r="167.93"/>
    <g>
      <ellipse class="cls-3" cx="540.44" cy="525.45" rx="19.07" ry="37.5"/>
      <ellipse class="cls-3" cx="606.54" cy="524.18" rx="19.07" ry="37.5"/>
      <g>
        <path class="cls-3" d="M443.1,599.53c16.72,5.71,36.66-5.16,41.08-22.22.77-3-3.82-4.23-4.59-1.27-3.8,14.69-20.91,23.79-35.23,18.91-2.9-1-4.14,3.6-1.26,4.58Z"/>
        <path class="cls-3" d="M702.6,605.1c-14,5.69-31.7-2.13-36.38-16.62-.93-2.9-5.53-1.66-4.58,1.26,5.4,16.73,25.8,26.65,42.22,19.94,2.8-1.14,1.57-5.74-1.26-4.58Z"/>
        <path class="cls-3" d="M465.39,595.19a149.12,149.12,0,0,0,31.36,46.89c11.23,11.55,24.3,21.54,39.08,28.1a101.34,101.34,0,0,0,64.56,6,114.78,114.78,0,0,0,42.54-20.48,119.71,119.71,0,0,0,35.77-43.89c.66-1.39,1.28-2.79,1.89-4.2,1.19-2.78-2.91-5.21-4.11-2.4a115.22,115.22,0,0,1-32.93,44c-2.14,1.74-3.56,2.83-5.94,4.53s-5.05,3.48-7.68,5.07a110,110,0,0,1-22.79,10.52,96.73,96.73,0,0,1-62.78-.82c-15.52-5.61-29.33-15.19-41.1-26.65-12.64-12.31-23.32-26.4-30.83-42.41-.86-1.83-1.68-3.67-2.45-5.54-1.16-2.79-5.76-1.56-4.59,1.27Z"/>
      </g>
    </g>
  </g>
</svg>
