<svg id="Camada_1" data-name="Camada 1" xmlns="http://www.w3.org/2000/svg" xmlns:xlink="http://www.w3.org/1999/xlink" viewBox="0 0 1920 206">
  <defs>
    <style>
      .cls-1 {
        fill: none;
      }

      .cls-2 {
        fill: #63e572;
      }

      .cls-3 {
        fill: #fff;
      }

      .cls-4 {
        fill: #a648f7;
      }

      .cls-5 {
        fill: url(#Novo_padrão);
      }

      .cls-6 {
        fill: #f4f4f4;
      }

      .cls-7 {
        fill: #f4cb4a;
      }

      .cls-8 {
        fill: #1a1a1a;
      }
    </style>
    <pattern id="Novo_padrão" data-name="Novo padrão" width="200" height="200" patternTransform="translate(-595.28 629.11)" patternUnits="userSpaceOnUse" viewBox="0 0 200 200">
      <rect class="cls-1" width="200" height="200"/>
      <g>
        <polygon class="cls-2" points="150.21 150.21 150.21 50.34 250.07 50.34 250.07 150.21 150.21 150.21"/>
        <polygon class="cls-2" points="50.34 250.07 50.34 150.21 150.21 150.21 150.21 250.07 50.34 250.07"/>
      </g>
      <g>
        <polygon class="cls-2" points="149.93 150.21 149.93 50.34 249.79 50.34 249.79 150.21 149.93 150.21"/>
        <polygon class="cls-2" points="-49.79 150.21 -49.79 50.34 50.07 50.34 50.07 150.21 -49.79 150.21"/>
        <polygon class="cls-2" points="50.07 250.07 50.07 150.21 149.93 150.21 149.93 250.07 50.07 250.07"/>
      </g>
      <g>
        <polygon class="cls-2" points="-50.07 150.21 -50.07 50.34 49.79 50.34 49.79 150.21 -50.07 150.21"/>
        <polygon class="cls-2" points="49.79 250.07 49.79 150.21 149.66 150.21 149.66 250.07 49.79 250.07"/>
      </g>
      <g>
        <polygon class="cls-2" points="50.34 50.07 50.34 -49.79 150.21 -49.79 150.21 50.07 50.34 50.07"/>
        <polygon class="cls-2" points="150.21 149.93 150.21 50.07 250.07 50.07 250.07 149.93 150.21 149.93"/>
        <polygon class="cls-2" points="50.34 249.79 50.34 149.93 150.21 149.93 150.21 249.79 50.34 249.79"/>
      </g>
      <g>
        <polygon class="cls-2" points="149.93 -49.79 149.93 -149.66 249.79 -149.66 249.79 -49.79 149.93 -49.79"/>
        <polygon class="cls-2" points="-49.79 -49.79 -49.79 -149.66 50.07 -149.66 50.07 -49.79 -49.79 -49.79"/>
        <polygon class="cls-2" points="50.07 50.07 50.07 -49.79 149.93 -49.79 149.93 50.07 50.07 50.07"/>
        <polygon class="cls-2" points="-149.66 50.07 -149.66 -49.79 -49.79 -49.79 -49.79 50.07 -149.66 50.07"/>
        <polygon class="cls-2" points="149.93 149.93 149.93 50.07 249.79 50.07 249.79 149.93 149.93 149.93"/>
        <polygon class="cls-2" points="-49.79 149.93 -49.79 50.07 50.07 50.07 50.07 149.93 -49.79 149.93"/>
        <polygon class="cls-2" points="50.07 249.79 50.07 149.93 149.93 149.93 149.93 249.79 50.07 249.79"/>
        <polygon class="cls-2" points="249.79 50.07 249.79 -49.79 349.66 -49.79 349.66 50.07 249.79 50.07"/>
        <polygon class="cls-2" points="249.79 249.79 249.79 149.93 349.66 149.93 349.66 249.79 249.79 249.79"/>
        <polygon class="cls-2" points="-149.66 249.79 -149.66 149.93 -49.79 149.93 -49.79 249.79 -149.66 249.79"/>
        <polygon class="cls-2" points="149.93 349.66 149.93 249.79 249.79 249.79 249.79 349.66 149.93 349.66"/>
        <polygon class="cls-2" points="-49.79 349.66 -49.79 249.79 50.07 249.79 50.07 349.66 -49.79 349.66"/>
      </g>
      <g>
        <polygon class="cls-2" points="-50.07 149.93 -50.07 50.07 49.79 50.07 49.79 149.93 -50.07 149.93"/>
        <polygon class="cls-2" points="49.79 50.07 49.79 -49.79 149.66 -49.79 149.66 50.07 49.79 50.07"/>
        <polygon class="cls-2" points="49.79 249.79 49.79 149.93 149.66 149.93 149.66 249.79 49.79 249.79"/>
      </g>
      <g>
        <polygon class="cls-2" points="50.34 49.79 50.34 -50.07 150.21 -50.07 150.21 49.79 50.34 49.79"/>
        <polygon class="cls-2" points="150.21 149.66 150.21 49.79 250.07 49.79 250.07 149.66 150.21 149.66"/>
      </g>
      <g>
        <polygon class="cls-2" points="50.07 49.79 50.07 -50.07 149.93 -50.07 149.93 49.79 50.07 49.79"/>
        <polygon class="cls-2" points="149.93 149.66 149.93 49.79 249.79 49.79 249.79 149.66 149.93 149.66"/>
        <polygon class="cls-2" points="-49.79 149.66 -49.79 49.79 50.07 49.79 50.07 149.66 -49.79 149.66"/>
      </g>
      <g>
        <polygon class="cls-2" points="49.79 49.79 49.79 -50.07 149.66 -50.07 149.66 49.79 49.79 49.79"/>
        <polygon class="cls-2" points="-50.07 149.66 -50.07 49.79 49.79 49.79 49.79 149.66 -50.07 149.66"/>
      </g>
    </pattern>
  </defs>
  <g>
    <rect class="cls-3" x="0.5" y="0.5" width="1919" height="205"/>
    <path d="M1919,1V205H1V1H1919m1-1H0V206H1920V0Z"/>
  </g>
  <rect class="cls-4" x="-6" width="1926" height="206"/>
  <rect class="cls-5" width="1920" height="206"/>
  <g>
    <g>
      <path class="cls-6" d="M148.12,76.08c-6.36,1.24-12.35-.55-15.24-4.75-.23-.33-3.23-4.81-1.42-8.27,1.45-2.76,5.35-3.68,8.36-2.94,6.72,1.64,11.34,12.1,11.34,12.1h0Z"/>
      <path d="M148.14,76.12h0c-6.43,1.26-12.43-.61-15.29-4.76-.13-.2-3.26-4.81-1.42-8.32,1.47-2.79,5.43-3.7,8.41-3C146.47,61.7,151,71.78,151.2,72.2v0l0,0ZM135.3,60.26a6,6,0,0,0-3.8,2.82c-1.82,3.46,1.28,8,1.42,8.23,2.84,4.11,8.79,6,15.17,4.73l3-3.82c-.31-.69-4.8-10.47-11.3-12.06A9,9,0,0,0,135.3,60.26Z"/>
    </g>
    <g>
      <path class="cls-6" d="M155.65,71.47c3-5.75,2.94-12-.27-16-.25-.31-3.71-4.46-7.54-3.69-3.06.61-5,4.1-5.18,7.19-.31,6.92,8.43,14.29,8.43,14.29h0Z"/>
      <path d="M151.08,73.35l0,0c-.35-.3-8.75-7.49-8.44-14.32.14-3.07,2.13-6.62,5.21-7.24,3.89-.78,7.44,3.53,7.59,3.71,3.17,3.91,3.28,10.2.27,16h0ZM147.49,52c-2.84.8-4.65,4.15-4.78,7.07-.16,3.54,2.12,7.21,4.06,9.67a36.2,36.2,0,0,0,4.33,4.56l4.52-1.82c3-5.77,2.88-12-.27-15.89-.15-.19-3.66-4.45-7.5-3.68Z"/>
    </g>
    <g>
      <path class="cls-6" d="M152.88,70.47c.88-6.42,4.53-11.5,9.43-12.88.39-.11,5.61-1.49,8.29,1.35,2.14,2.26,1.74,6.25.07,8.86-3.74,5.82-15.13,6.79-15.13,6.79h0Z"/>
      <path d="M161.43,73.5a34.9,34.9,0,0,1-5.89,1.14h0l0,0-2.67-4.14v0c.9-6.47,4.6-11.53,9.44-12.9h0c.22-.06,5.61-1.53,8.33,1.35,2.16,2.29,1.74,6.33.08,8.92-1.94,3-5.94,4.7-9,5.59Zm-5.87,1a36.46,36.46,0,0,0,6.17-1.22c3-.89,7-2.57,8.9-5.56,1.64-2.55,2.06-6.55-.07-8.8-2.68-2.85-8-1.4-8.24-1.33h0c-4.81,1.36-8.48,6.39-9.38,12.82Z"/>
    </g>
    <g>
      <path class="cls-6" d="M155.68,74.08c4.88-4.24,11-5.68,15.57-3.48.36.17,5.21,2.56,5.36,6.46.12,3.12-2.81,5.86-5.78,6.72C164.18,85.71,155,78.94,155,78.94h0Z"/>
      <path d="M170.79,83.84c-6.56,1.85-15.47-4.59-15.85-4.86l0,0v0l.71-4.88h0c4.94-4.29,11.07-5.66,15.62-3.49.21.1,5.23,2.54,5.38,6.5.12,3.14-2.86,5.91-5.81,6.76ZM155,78.92c.61.44,9.33,6.65,15.76,4.83h0c2.91-.85,5.86-3.58,5.74-6.68-.15-3.91-5.12-6.32-5.33-6.42-4.51-2.16-10.6-.79-15.51,3.47Z"/>
    </g>
    <g>
      <path class="cls-6" d="M151.52,80.72c-.09,6.48,2.74,12.06,7.37,14.16.37.16,5.32,2.33,8.4-.07,2.46-1.92,2.67-5.92,1.41-8.75-2.81-6.33-13.92-9-13.92-9h0Z"/>
      <path d="M165.56,95.72c-3,.84-6.51-.72-6.68-.8-4.6-2.08-7.5-7.65-7.4-14.2v0h0L154.76,77h0a35.86,35.86,0,0,1,6,2.15c2.85,1.34,6.55,3.62,8,6.89,1.24,2.81,1.05,6.87-1.43,8.8A5.2,5.2,0,0,1,165.56,95.72Zm-14-15c-.09,6.5,2.79,12,7.34,14.1.18.08,3.67,1.63,6.62.79a5,5,0,0,0,1.73-.86c2.45-1.91,2.64-5.92,1.4-8.7-1.44-3.24-5.12-5.51-8-6.83a34.51,34.51,0,0,0-5.9-2.14Z"/>
    </g>
    <g>
      <path class="cls-6" d="M151.91,80.39c3.7,5.31,4.47,11.52,1.8,15.86-.21.34-3.1,4.9-7,4.63-3.11-.21-5.52-3.41-6.06-6.46-1.21-6.82,6.51-15.26,6.51-15.26h0Z"/>
      <path d="M148.43,100.74a5.17,5.17,0,0,1-1.72.19c-3.14-.22-5.57-3.48-6.1-6.5-.63-3.53,1.17-7.49,2.79-10.19a35.25,35.25,0,0,1,3.72-5.11l0,0h0l4.77,1.23h0c3.74,5.37,4.45,11.62,1.8,15.91C153.65,96.44,151.5,99.87,148.43,100.74Zm-1.26-21.53a36.37,36.37,0,0,0-3.7,5.07c-1.61,2.69-3.4,6.63-2.78,10.13.53,3,2.93,6.21,6,6.43,3.9.26,6.83-4.42,7-4.62,2.62-4.26,1.91-10.45-1.8-15.79Z"/>
    </g>
    <g>
      <path class="cls-6" d="M151.3,81.11c-3.38,5.56-8.85,8.81-14.05,8.14-.41,0-5.91-.83-7.34-4.49-1.13-2.93.83-6.44,3.45-8.19,5.85-3.89,17-.3,17-.3h0Z"/>
      <path d="M141.76,88.93a11.39,11.39,0,0,1-4.52.37c-.24,0-5.92-.8-7.37-4.53-1.14-3,.86-6.51,3.46-8.23,3-2,7.5-2,10.72-1.63a37,37,0,0,1,6.37,1.32h0v0l.9,4.86v0A17.12,17.12,0,0,1,141.76,88.93Zm-5.64-13.54a9.68,9.68,0,0,0-2.74,1.22c-2.57,1.71-4.55,5.22-3.42,8.13,1.42,3.68,7.06,4.44,7.3,4.47,5.1.65,10.6-2.53,14-8.1l-.89-4.81A38.38,38.38,0,0,0,144,75,21.44,21.44,0,0,0,136.12,75.39Z"/>
    </g>
    <circle class="cls-7" cx="153.23" cy="78.29" r="9.53"/>
    <g>
      <ellipse class="cls-8" cx="150.7" cy="76.51" rx="1.08" ry="2.13" transform="matrix(0.96, -0.27, 0.27, 0.96, -15.13, 43.9)"/>
      <ellipse class="cls-8" cx="154.29" cy="75.42" rx="1.08" ry="2.13" transform="translate(-14.7 44.84) rotate(-15.79)"/>
      <g>
        <path class="cls-8" d="M146.53,82.06a1.87,1.87,0,0,0,1.9-1.85.14.14,0,0,0-.27,0,1.6,1.6,0,0,1-1.63,1.58c-.17,0-.17.26,0,.27Z"/>
        <path class="cls-8" d="M160.79,78.35a1.59,1.59,0,0,1-2.24-.34c-.1-.14-.33,0-.23.14a1.86,1.86,0,0,0,2.61.44c.13-.11,0-.34-.14-.24Z"/>
        <path class="cls-8" d="M147.68,81.48a8.51,8.51,0,0,0,2.44,2.07,7.16,7.16,0,0,0,2.57.93,5.78,5.78,0,0,0,3.62-.66,6.55,6.55,0,0,0,2-1.78,6.84,6.84,0,0,0,1.28-3c0-.09,0-.17,0-.26s-.24-.24-.27-.07a6.56,6.56,0,0,1-1.11,2.92c-.09.12-.15.21-.26.34l-.34.39a6.39,6.39,0,0,1-1.08.93,5.45,5.45,0,0,1-3.44.92,6.41,6.41,0,0,1-2.66-.82,8.36,8.36,0,0,1-2.34-1.84l-.22-.26c-.1-.14-.33,0-.23.14Z"/>
      </g>
    </g>
  </g>
  <g>
    <g>
      <path class="cls-6" d="M444.06,170.72c-6.38-1.13-11.32-5-12.5-9.92-.1-.39-1.28-5.66,1.66-8.23,2.35-2,6.32-1.5,8.86.27,5.68,4,6.2,15.38,6.2,15.38h0Z"/>
      <path d="M444.06,170.77h0c-6.45-1.15-11.37-5.06-12.54-10-.05-.23-1.31-5.66,1.68-8.27,2.37-2.07,6.4-1.49,8.92.27,5.6,3.91,6.19,14.94,6.22,15.41v0h0Zm-6.25-19.43a6,6,0,0,0-4.56,1.26c-2.95,2.58-1.7,8-1.65,8.19,1.16,4.86,6,8.74,12.45,9.89l4.19-2.48c0-.75-.7-11.49-6.19-15.32A9.08,9.08,0,0,0,437.81,151.34Z"/>
    </g>
    <g>
      <path class="cls-6" d="M452.74,169.14c4.86-4.29,7.08-10.14,5.51-15-.12-.38-1.85-5.5-5.7-6.16-3.07-.53-6.17,2-7.42,4.84-2.79,6.33,2.7,16.36,2.7,16.36h0Z"/>
      <path d="M447.81,169.25l0,0c-.22-.41-5.46-10.14-2.7-16.4,1.23-2.81,4.37-5.4,7.47-4.87,3.91.68,5.66,6,5.74,6.2,1.55,4.79-.62,10.69-5.53,15h0ZM452.18,148c-2.94-.27-5.84,2.2-7,4.87-1.43,3.25-.63,7.49.3,10.48a35.22,35.22,0,0,0,2.39,5.82l4.87-.07c4.87-4.3,7-10.16,5.48-14.92-.07-.22-1.81-5.46-5.67-6.13Z"/>
    </g>
    <g>
      <path class="cls-6" d="M450.52,167.21c3.14-5.67,8.37-9.09,13.44-8.61.4,0,5.77.63,7.25,4.25,1.18,2.89-.63,6.46-3.13,8.29-5.59,4.08-16.57.88-16.57.88h0Z"/>
      <path d="M457.4,173.13a35.93,35.93,0,0,1-5.9-1.07h0v0l-1-4.83h0c3.17-5.72,8.45-9.1,13.46-8.63h0c.23,0,5.78.6,7.28,4.27,1.19,2.91-.67,6.53-3.15,8.34-2.89,2.12-7.23,2.25-10.36,2ZM451.55,172a35.1,35.1,0,0,0,6.19,1.09c3.12.26,7.44.13,10.31-2,2.45-1.79,4.29-5.36,3.12-8.24-1.48-3.62-7-4.19-7.21-4.21h0c-5-.47-10.21,2.89-13.36,8.56Z"/>
    </g>
    <g>
      <path class="cls-6" d="M451.83,171.59c6.09-2.2,12.28-1.33,15.78,2.37.27.29,3.93,4.27,2.66,8-1,3-4.73,4.45-7.81,4.18-6.9-.6-13-10.23-13-10.23h0Z"/>
      <path d="M462.4,186.14c-6.78-.63-12.78-9.86-13-10.25v0l2.42-4.29h0c6.16-2.22,12.37-1.29,15.83,2.38.16.17,4,4.25,2.67,8-1,3-4.79,4.47-7.86,4.21Zm-12.94-10.28c.41.63,6.3,9.57,13,10.19h0c3,.26,6.76-1.22,7.77-4.15,1.27-3.7-2.49-7.75-2.65-7.92-3.44-3.64-9.61-4.56-15.72-2.36Z"/>
    </g>
    <g>
      <path class="cls-6" d="M445.56,176.28c-2.43,6-1.8,12.23,1.76,15.86.29.29,4.12,4.09,7.86,3,3-.9,4.63-4.56,4.47-7.65-.33-6.91-9.73-13.43-9.73-13.43h0Z"/>
      <path d="M453.23,195.33c-3.08-.29-5.8-3-5.94-3.15-3.53-3.6-4.23-9.85-1.78-15.91v0h0l4.38-2.26h0a35.84,35.84,0,0,1,4.77,4.16c2.17,2.27,4.8,5.73,5,9.31.15,3.07-1.5,6.78-4.51,7.69A5,5,0,0,1,453.23,195.33Zm-7.64-19c-2.43,6-1.74,12.22,1.77,15.79.13.14,2.83,2.85,5.88,3.13a4.92,4.92,0,0,0,1.93-.18c3-.89,4.59-4.56,4.44-7.6-.17-3.55-2.79-7-5-9.25a35.35,35.35,0,0,0-4.73-4.13Z"/>
    </g>
    <g>
      <path class="cls-6" d="M446,176.11c1.53,6.29,0,12.36-4,15.44-.32.24-4.67,3.45-8.2,1.8-2.83-1.32-3.92-5.18-3.33-8.22,1.34-6.79,11.58-11.88,11.58-11.88h0Z"/>
      <path d="M435.45,193.84a5.25,5.25,0,0,1-1.67-.45c-2.85-1.33-3.94-5.25-3.35-8.27.69-3.51,3.8-6.56,6.28-8.49a35.37,35.37,0,0,1,5.32-3.42h0l0,0,4,2.87h0c1.55,6.36,0,12.44-4.06,15.49C441.86,191.71,438.62,194.13,435.45,193.84ZM442,173.31a34.62,34.62,0,0,0-5.27,3.39c-2.48,1.93-5.57,5-6.25,8.44-.59,3,.49,6.85,3.3,8.17,3.54,1.66,8-1.65,8.15-1.79,4-3,5.56-9.06,4-15.38Z"/>
    </g>
    <g>
      <path class="cls-6" d="M445.21,176.57c-5.16,4-11.43,5-16,2.52-.37-.2-5.22-2.91-5.22-6.84,0-3.14,3.09-5.71,6.16-6.39,6.86-1.52,16,5.87,16,5.87h0Z"/>
      <path d="M433.49,180.41a11.27,11.27,0,0,1-4.34-1.28c-.22-.12-5.25-2.89-5.25-6.88,0-3.17,3.15-5.76,6.2-6.44,3.55-.78,7.72.85,10.58,2.36a38.14,38.14,0,0,1,5.47,3.52l0,0v0l-.92,4.85h0A17,17,0,0,1,433.49,180.41Zm-.37-14.66a10,10,0,0,0-3,.15c-3,.67-6.13,3.22-6.13,6.35,0,3.94,5,6.68,5.2,6.8,4.53,2.45,10.8,1.47,16-2.51l.9-4.79a36.42,36.42,0,0,0-5.43-3.5A21.39,21.39,0,0,0,433.12,165.75Z"/>
    </g>
    <circle class="cls-7" cx="448.02" cy="174.63" r="9.53"/>
    <g>
      <ellipse class="cls-8" cx="446.31" cy="172.06" rx="2.13" ry="1.08" transform="translate(233.31 600.35) rotate(-84.64)"/>
      <ellipse class="cls-8" cx="450.05" cy="172.34" rx="2.13" ry="1.08" transform="translate(236.43 604.33) rotate(-84.64)"/>
      <g>
        <path class="cls-8" d="M440.42,175.73a1.88,1.88,0,0,0,2.44-1,.13.13,0,0,0-.25-.09,1.6,1.6,0,0,1-2.09.88c-.16-.07-.26.18-.1.25Z"/>
        <path class="cls-8" d="M455.05,177.42a1.59,1.59,0,0,1-2-1.13c0-.17-.31-.13-.27,0a1.86,1.86,0,0,0,2.28,1.35c.16,0,.12-.31-.05-.26Z"/>
        <path class="cls-8" d="M441.7,175.6a8.51,8.51,0,0,0,1.53,2.82,7.18,7.18,0,0,0,2,1.79,5.71,5.71,0,0,0,3.62.68,6.31,6.31,0,0,0,2.51-.93,6.78,6.78,0,0,0,2.26-2.29l.13-.23c.08-.15-.14-.3-.22-.15a6.65,6.65,0,0,1-2.1,2.31,3.13,3.13,0,0,1-.36.22l-.46.25a5.93,5.93,0,0,1-1.34.47,5.46,5.46,0,0,1-3.54-.38,6.67,6.67,0,0,1-2.19-1.72,8.48,8.48,0,0,1-1.51-2.56c0-.11-.08-.22-.11-.33s-.32-.11-.27,0Z"/>
      </g>
    </g>
  </g>
  <g>
    <g>
      <path class="cls-6" d="M648.1,76.49c-6.29-1.54-11-5.68-11.84-10.7-.07-.4-.92-5.73,2.18-8.11,2.48-1.89,6.4-1.09,8.82.84,5.42,4.31,5.21,15.75,5.21,15.75h0Z"/>
      <path d="M648.1,76.54h0c-6.36-1.56-11-5.77-11.88-10.74,0-.24-.94-5.74,2.2-8.15,2.5-1.92,6.48-1.08,8.88.84,5.35,4.25,5.24,15.31,5.23,15.78v0l0,0Zm-5-19.79a6,6,0,0,0-4.63,1c-3.11,2.38-2.21,7.83-2.17,8.06.85,4.93,5.48,9.11,11.79,10.66l4.34-2.2c0-.75,0-11.51-5.19-15.68A9,9,0,0,0,643.1,56.75Z"/>
    </g>
    <g>
      <path class="cls-6" d="M656.87,75.46c5.11-4,7.71-9.66,6.45-14.59-.1-.39-1.5-5.61-5.3-6.52-3-.72-6.29,1.61-7.71,4.36-3.19,6.15,1.65,16.5,1.65,16.5h0Z"/>
      <path d="M651.93,75.26v0c-.2-.42-4.8-10.47-1.65-16.54,1.41-2.73,4.7-5.11,7.76-4.38,3.86.92,5.28,6.32,5.33,6.55,1.25,4.88-1.29,10.63-6.46,14.64h0Zm5.72-20.93c-2.91-.47-6,1.81-7.3,4.4-1.64,3.15-1.11,7.44-.38,10.48a36.08,36.08,0,0,0,2,6l4.86.25c5.14-4,7.66-9.7,6.43-14.54-.06-.23-1.46-5.57-5.27-6.48A2.29,2.29,0,0,0,657.65,54.33Z"/>
    </g>
    <g>
      <path class="cls-6" d="M654.77,73.39c3.5-5.45,8.94-8.53,14-7.72.4.06,5.72,1,7,4.69,1,3-1,6.41-3.65,8.08-5.83,3.72-16.58-.18-16.58-.18h0Z"/>
      <path d="M661.26,79.74a35.29,35.29,0,0,1-5.82-1.44h0v0l-.69-4.88h0c3.53-5.5,9-8.54,14-7.75h0c.24,0,5.73,1,7,4.73,1,3-1.08,6.47-3.68,8.12-3,1.93-7.35,1.78-10.47,1.32Zm-5.76-1.52a34.74,34.74,0,0,0,6.11,1.48c3.09.46,7.41.61,10.41-1.3,2.56-1.64,4.62-5.08,3.63-8-1.24-3.71-6.69-4.63-6.92-4.67h0c-4.93-.79-10.37,2.23-13.88,7.69Z"/>
    </g>
    <g>
      <path class="cls-6" d="M655.79,77.85c6.22-1.8,12.35-.55,15.6,3.37.26.31,3.66,4.51,2.15,8.12-1.19,2.88-5,4.14-8.06,3.67C658.64,92,653.11,82,653.11,82h0Z"/>
      <path d="M665.42,93.05C658.69,92,653.3,82.39,653.07,82v0l2.7-4.13h0c6.29-1.82,12.43-.5,15.65,3.38.15.18,3.68,4.5,2.16,8.16-1.21,2.91-5.08,4.17-8.12,3.71ZM653.16,82c.37.65,5.68,9.94,12.27,11h.06c3,.45,6.82-.79,8-3.65,1.51-3.61-2-7.89-2.14-8.07-3.19-3.85-9.29-5.17-15.54-3.36Z"/>
    </g>
    <g>
      <path class="cls-6" d="M649.24,82.14c-2.8,5.83-2.58,12.08.75,15.94.26.3,3.85,4.34,7.65,3.46,3-.71,4.91-4.26,5-7.35.1-6.92-8.86-14-8.86-14h0Z"/>
      <path d="M655.69,101.64c-3.07-.49-5.6-3.39-5.73-3.53-3.3-3.82-3.6-10.1-.76-16v0h0l4.52-2,0,0a35.52,35.52,0,0,1,4.49,4.45c2,2.41,4.43,6,4.38,9.61,0,3.07-1.92,6.68-5,7.39A5.19,5.19,0,0,1,655.69,101.64Zm-6.42-19.47c-2.81,5.86-2.51,12.09.76,15.88.12.14,2.64,3,5.67,3.5a5,5,0,0,0,1.93-.06c3-.7,4.88-4.27,4.92-7.3.05-3.56-2.34-7.16-4.36-9.55a34.87,34.87,0,0,0-4.46-4.42Z"/>
    </g>
    <g>
      <path class="cls-6" d="M649.73,82c1.13,6.37-.77,12.33-5,15.15-.33.22-4.87,3.14-8.3,1.27-2.73-1.5-3.58-5.42-2.79-8.41,1.77-6.7,12.31-11.12,12.31-11.12h0Z"/>
      <path d="M638,99a5.29,5.29,0,0,1-1.64-.55c-2.76-1.52-3.59-5.49-2.81-8.47.91-3.46,4.21-6.3,6.81-8.07a33.78,33.78,0,0,1,5.52-3.07H646L649.77,82v0c1.15,6.44-.83,12.41-5,15.19C644.57,97.29,641.18,99.51,638,99Zm7.89-20.07a35.22,35.22,0,0,0-5.48,3c-2.59,1.77-5.87,4.59-6.77,8-.78,2.94.05,6.87,2.77,8.36,3.43,1.88,8-1.14,8.25-1.27,4.17-2.77,6.13-8.69,5-15.09Z"/>
    </g>
    <g>
      <path class="cls-6" d="M648.87,82.4c-5.39,3.62-11.72,4.27-16.17,1.49-.35-.22-5-3.23-4.77-7.16.2-3.13,3.45-5.5,6.56-6,6.94-1.08,15.61,6.88,15.61,6.88h0Z"/>
      <path d="M636.93,85.49a11.45,11.45,0,0,1-4.25-1.56c-.21-.13-5-3.22-4.79-7.2.2-3.16,3.51-5.55,6.59-6,3.59-.55,7.65,1.34,10.41,3a37.87,37.87,0,0,1,5.24,3.86l0,0v0l-1.23,4.79h0A17.13,17.13,0,0,1,636.93,85.49Zm.57-14.66a9.76,9.76,0,0,0-3,0c-3,.47-6.33,2.83-6.52,5.94-.25,3.94,4.54,7,4.75,7.12,4.36,2.74,10.68,2.15,16.11-1.48l1.21-4.73a37.58,37.58,0,0,0-5.2-3.83A21.48,21.48,0,0,0,637.5,70.83Z"/>
    </g>
    <circle class="cls-7" cx="651.81" cy="80.64" r="9.53"/>
    <g>
      <ellipse class="cls-8" cx="650.26" cy="77.97" rx="2.13" ry="1.08" transform="translate(471.36 707.98) rotate(-80.98)"/>
      <ellipse class="cls-8" cx="653.98" cy="78.48" rx="2.13" ry="1.08" transform="matrix(0.16, -0.99, 0.99, 0.16, 473.99, 712.09)"/>
      <g>
        <path class="cls-8" d="M644.15,81.25a1.87,1.87,0,0,0,2.5-.88c.07-.15-.18-.27-.25-.11a1.59,1.59,0,0,1-2.14.75c-.15-.08-.26.16-.11.24Z"/>
        <path class="cls-8" d="M658.64,83.87a1.6,1.6,0,0,1-1.89-1.25.14.14,0,0,0-.27,0,1.87,1.87,0,0,0,2.19,1.49c.17,0,.14-.31,0-.27Z"/>
        <path class="cls-8" d="M645.44,81.21a8.38,8.38,0,0,0,1.34,2.91A7.23,7.23,0,0,0,648.72,86a5.74,5.74,0,0,0,3.56.91,6.44,6.44,0,0,0,2.57-.77A6.64,6.64,0,0,0,657.24,84l.15-.22c.09-.15-.12-.32-.21-.17a6.55,6.55,0,0,1-2.24,2.17,3.22,3.22,0,0,1-.37.2l-.48.22a6.5,6.5,0,0,1-1.37.39,5.5,5.5,0,0,1-3.51-.61,6.58,6.58,0,0,1-2.07-1.86,8.21,8.21,0,0,1-1.35-2.65l-.09-.33c0-.17-.3-.14-.26,0Z"/>
      </g>
    </g>
  </g>
  <g>
    <g>
      <path class="cls-6" d="M9.1,193.49c-6.29-1.54-11-5.68-11.84-10.7-.07-.4-.92-5.73,2.18-8.11,2.48-1.89,6.4-1.09,8.82.84,5.42,4.31,5.21,15.75,5.21,15.75h0Z"/>
      <path d="M9.1,193.54h0c-6.36-1.56-11-5.77-11.88-10.74,0-.24-.94-5.74,2.2-8.15,2.5-1.92,6.48-1.08,8.88.84,5.35,4.25,5.24,15.31,5.23,15.78v0l0,0Zm-5-19.79a6,6,0,0,0-4.63,1c-3.11,2.38-2.21,7.83-2.17,8.06.85,4.93,5.48,9.11,11.79,10.66l4.34-2.2c0-.75,0-11.51-5.19-15.68A9,9,0,0,0,4.1,173.75Z"/>
    </g>
    <g>
      <path class="cls-6" d="M17.87,192.46c5.11-4,7.71-9.66,6.45-14.59-.1-.39-1.5-5.61-5.3-6.52-3-.72-6.29,1.61-7.71,4.36-3.19,6.15,1.65,16.5,1.65,16.5h0Z"/>
      <path d="M12.93,192.26v0c-.2-.42-4.8-10.47-1.65-16.54,1.41-2.73,4.7-5.11,7.76-4.38,3.86.92,5.28,6.32,5.33,6.55,1.25,4.88-1.29,10.63-6.46,14.64h0Zm5.72-20.93c-2.91-.47-6,1.81-7.3,4.4-1.64,3.15-1.11,7.44-.38,10.48a36.08,36.08,0,0,0,2,6l4.86.25c5.14-4,7.66-9.7,6.43-14.54-.06-.23-1.46-5.57-5.27-6.48A2.29,2.29,0,0,0,18.65,171.33Z"/>
    </g>
    <g>
      <path class="cls-6" d="M15.77,190.39c3.5-5.45,8.94-8.53,14-7.72.4.06,5.72,1,7,4.69,1,3-1,6.41-3.65,8.08-5.83,3.72-16.58-.18-16.58-.18h0Z"/>
      <path d="M22.26,196.74a35.29,35.29,0,0,1-5.82-1.44h0v0l-.69-4.88h0c3.53-5.5,9-8.54,14-7.75h0c.24,0,5.73,1,7,4.73,1,3-1.08,6.47-3.68,8.12-3,1.93-7.35,1.78-10.47,1.32Zm-5.76-1.52a34.74,34.74,0,0,0,6.11,1.48c3.09.46,7.41.61,10.41-1.3,2.56-1.64,4.62-5.08,3.63-8-1.24-3.71-6.69-4.63-6.92-4.67h0c-4.93-.79-10.37,2.23-13.88,7.69Z"/>
    </g>
    <g>
      <path class="cls-6" d="M16.79,194.85c6.22-1.8,12.35-.55,15.6,3.37.26.31,3.66,4.51,2.15,8.12-1.19,2.88-5,4.14-8.06,3.67-6.84-1-12.37-11-12.37-11h0Z"/>
      <path d="M26.42,210.05C19.69,209,14.3,199.39,14.07,199v-.05l2.7-4.13h0c6.29-1.82,12.43-.5,15.65,3.38.15.18,3.68,4.5,2.16,8.16-1.21,2.91-5.08,4.17-8.12,3.71ZM14.16,199c.37.65,5.68,9.94,12.27,11h.06c3,.45,6.82-.79,8-3.65,1.51-3.61-2-7.89-2.14-8.07-3.19-3.85-9.29-5.17-15.54-3.36Z"/>
    </g>
    <g>
      <path class="cls-6" d="M10.24,199.14c-2.8,5.83-2.58,12.08.75,15.94.26.3,3.85,4.34,7.65,3.46,3-.71,4.91-4.26,5-7.35.1-6.92-8.86-14-8.86-14h0Z"/>
      <path d="M16.69,218.64c-3.07-.49-5.6-3.39-5.73-3.53-3.3-3.82-3.6-10.1-.76-16v0h0l4.52-2,0,0a35.52,35.52,0,0,1,4.49,4.45c2,2.41,4.43,6,4.38,9.61,0,3.07-1.92,6.68-5,7.39A5.19,5.19,0,0,1,16.69,218.64Zm-6.42-19.47C7.46,205,7.76,211.26,11,215.05c.12.14,2.64,3,5.67,3.5a5,5,0,0,0,1.93-.06c3-.7,4.88-4.27,4.92-7.3.05-3.56-2.34-7.16-4.36-9.55a34.87,34.87,0,0,0-4.46-4.42Z"/>
    </g>
    <g>
      <path class="cls-6" d="M10.73,199c1.13,6.37-.77,12.33-5,15.15-.33.22-4.87,3.14-8.3,1.27-2.73-1.5-3.58-5.42-2.79-8.41,1.77-6.7,12.31-11.12,12.31-11.12h0Z"/>
      <path d="M-1,216a5.29,5.29,0,0,1-1.64-.55C-5.37,213.94-6.2,210-5.42,207c.91-3.46,4.21-6.3,6.81-8.07a33.78,33.78,0,0,1,5.52-3.07H7L10.77,199v0c1.15,6.44-.83,12.41-5,15.19C5.57,214.29,2.18,216.51-1,216Zm7.89-20.07A35.22,35.22,0,0,0,1.44,199c-2.59,1.77-5.87,4.59-6.77,8-.78,2.94,0,6.87,2.77,8.36,3.43,1.88,8.05-1.14,8.25-1.27,4.17-2.77,6.13-8.69,5-15.09Z"/>
    </g>
    <g>
      <path class="cls-6" d="M9.87,199.4C4.48,203-1.85,203.67-6.3,200.89c-.35-.22-5-3.23-4.77-7.16.2-3.13,3.45-5.5,6.56-6,6.94-1.08,15.61,6.88,15.61,6.88h0Z"/>
      <path d="M-2.07,202.49a11.45,11.45,0,0,1-4.25-1.56c-.21-.13-5-3.22-4.79-7.2.2-3.16,3.51-5.55,6.59-6,3.59-.55,7.65,1.34,10.41,3a37.87,37.87,0,0,1,5.24,3.86l0,0v0l-1.23,4.79h0A17.13,17.13,0,0,1-2.07,202.49Zm.57-14.66a9.76,9.76,0,0,0-3,0c-3,.47-6.33,2.83-6.52,5.94-.25,3.94,4.54,7,4.75,7.12,4.36,2.74,10.68,2.15,16.11-1.48l1.21-4.73a37.58,37.58,0,0,0-5.2-3.83A21.48,21.48,0,0,0-1.5,187.83Z"/>
    </g>
    <circle class="cls-7" cx="12.81" cy="197.64" r="9.53"/>
    <g>
      <ellipse class="cls-8" cx="11.26" cy="194.97" rx="2.13" ry="1.08" transform="translate(-183.06 175.54) rotate(-80.98)"/>
      <ellipse class="cls-8" cx="14.98" cy="195.48" rx="2.13" ry="1.08" transform="matrix(0.16, -0.99, 0.99, 0.16, -180.44, 179.65)"/>
      <g>
        <path class="cls-8" d="M5.15,198.25a1.87,1.87,0,0,0,2.5-.88c.07-.15-.18-.27-.25-.11a1.59,1.59,0,0,1-2.14.75c-.15-.08-.26.16-.11.24Z"/>
        <path class="cls-8" d="M19.64,200.87a1.6,1.6,0,0,1-1.89-1.25.14.14,0,0,0-.27,0,1.87,1.87,0,0,0,2.19,1.49c.17,0,.14-.31,0-.27Z"/>
        <path class="cls-8" d="M6.44,198.21a8.38,8.38,0,0,0,1.34,2.91A7.23,7.23,0,0,0,9.72,203a5.74,5.74,0,0,0,3.56.91,6.44,6.44,0,0,0,2.57-.77A6.64,6.64,0,0,0,18.24,201l.15-.22c.09-.15-.12-.32-.21-.17a6.55,6.55,0,0,1-2.24,2.17,3.22,3.22,0,0,1-.37.2l-.48.22a6.5,6.5,0,0,1-1.37.39,5.5,5.5,0,0,1-3.51-.61,6.58,6.58,0,0,1-2.07-1.86,8.21,8.21,0,0,1-1.35-2.65l-.09-.33c0-.17-.3-.14-.26,0Z"/>
      </g>
    </g>
  </g>
  <g>
    <g>
      <path class="cls-6" d="M1351.1,77.49c-6.29-1.54-11-5.68-11.84-10.7-.07-.4-.92-5.73,2.18-8.11,2.48-1.89,6.4-1.09,8.82.84,5.42,4.31,5.21,15.75,5.21,15.75h0Z"/>
      <path d="M1351.1,77.54h0c-6.36-1.56-11-5.77-11.88-10.74,0-.24-.94-5.74,2.2-8.15,2.5-1.92,6.48-1.08,8.88.84,5.35,4.25,5.24,15.31,5.23,15.78v0l0,0Zm-5-19.79a6,6,0,0,0-4.63,1c-3.11,2.38-2.21,7.83-2.17,8.06.85,4.93,5.48,9.11,11.79,10.66l4.34-2.2c0-.75,0-11.51-5.19-15.68A9,9,0,0,0,1346.1,57.75Z"/>
    </g>
    <g>
      <path class="cls-6" d="M1359.87,76.46c5.11-4,7.71-9.66,6.45-14.59-.1-.39-1.5-5.61-5.3-6.52-3-.72-6.29,1.61-7.71,4.36-3.19,6.15,1.65,16.5,1.65,16.5h0Z"/>
      <path d="M1354.93,76.26v0c-.2-.42-4.8-10.47-1.65-16.54,1.41-2.73,4.7-5.11,7.76-4.38,3.86.92,5.28,6.32,5.33,6.55,1.25,4.88-1.29,10.63-6.46,14.64h0Zm5.72-20.93c-2.91-.47-6,1.81-7.3,4.4-1.64,3.15-1.11,7.44-.38,10.48a36.08,36.08,0,0,0,2,6l4.86.25c5.14-4,7.66-9.7,6.43-14.54-.06-.23-1.46-5.57-5.27-6.48A2.29,2.29,0,0,0,1360.65,55.33Z"/>
    </g>
    <g>
      <path class="cls-6" d="M1357.77,74.39c3.5-5.45,8.94-8.53,14-7.72.4.06,5.72,1,7,4.69,1,3-1,6.41-3.65,8.08-5.83,3.72-16.58-.18-16.58-.18h0Z"/>
      <path d="M1364.26,80.74a35.29,35.29,0,0,1-5.82-1.44h0v0l-.69-4.88h0c3.53-5.5,9-8.54,14-7.75h0c.24,0,5.73,1,7,4.73,1,3-1.08,6.47-3.68,8.12-3,1.93-7.35,1.78-10.47,1.32Zm-5.76-1.52a34.74,34.74,0,0,0,6.11,1.48c3.09.46,7.41.61,10.41-1.3,2.56-1.64,4.62-5.08,3.63-8-1.24-3.71-6.69-4.63-6.92-4.67h0c-4.93-.79-10.37,2.23-13.88,7.69Z"/>
    </g>
    <g>
      <path class="cls-6" d="M1358.79,78.85c6.22-1.8,12.35-.55,15.6,3.37.26.31,3.66,4.51,2.15,8.12-1.19,2.88-5,4.14-8.06,3.67-6.84-1-12.37-11.05-12.37-11.05h0Z"/>
      <path d="M1368.42,94.05C1361.69,93,1356.3,83.39,1356.07,83v0l2.7-4.13h0c6.29-1.82,12.43-.5,15.65,3.38.15.18,3.68,4.5,2.16,8.16-1.21,2.91-5.08,4.17-8.12,3.71ZM1356.16,83c.37.65,5.68,9.94,12.27,11h.06c3,.45,6.82-.79,8-3.65,1.51-3.61-2-7.89-2.14-8.07-3.19-3.85-9.29-5.17-15.54-3.36Z"/>
    </g>
    <g>
      <path class="cls-6" d="M1352.24,83.14c-2.8,5.83-2.58,12.08.75,15.94.26.3,3.85,4.34,7.65,3.46,3-.71,4.91-4.26,5-7.35.1-6.92-8.86-14-8.86-14h0Z"/>
      <path d="M1358.69,102.64c-3.07-.49-5.6-3.39-5.73-3.53-3.3-3.82-3.6-10.1-.76-16v0h0l4.52-2,0,0a35.52,35.52,0,0,1,4.49,4.45c2,2.41,4.43,6,4.38,9.61,0,3.07-1.92,6.68-5,7.39A5.19,5.19,0,0,1,1358.69,102.64Zm-6.42-19.47c-2.81,5.86-2.51,12.09.76,15.88.12.14,2.64,3,5.67,3.5a5,5,0,0,0,1.93-.06c3-.7,4.88-4.27,4.92-7.3,0-3.56-2.34-7.16-4.36-9.55a34.87,34.87,0,0,0-4.46-4.42Z"/>
    </g>
    <g>
      <path class="cls-6" d="M1352.73,83c1.13,6.37-.77,12.33-5,15.15-.33.22-4.87,3.14-8.3,1.27-2.73-1.5-3.58-5.42-2.79-8.41,1.77-6.7,12.31-11.12,12.31-11.12h0Z"/>
      <path d="M1341,100a5.29,5.29,0,0,1-1.64-.55c-2.76-1.52-3.59-5.49-2.81-8.47.91-3.46,4.21-6.3,6.81-8.07a33.78,33.78,0,0,1,5.52-3.07h0l3.81,3.12v0c1.15,6.44-.83,12.41-5,15.19C1347.57,98.29,1344.18,100.51,1341,100Zm7.89-20.07a35.22,35.22,0,0,0-5.48,3c-2.59,1.77-5.87,4.59-6.77,8-.78,2.94,0,6.87,2.77,8.36,3.43,1.88,8-1.14,8.25-1.27,4.17-2.77,6.13-8.69,5-15.09Z"/>
    </g>
    <g>
      <path class="cls-6" d="M1351.87,83.4c-5.39,3.62-11.72,4.27-16.17,1.49-.35-.22-5-3.23-4.77-7.16.2-3.13,3.45-5.5,6.56-6,6.94-1.08,15.61,6.88,15.61,6.88h0Z"/>
      <path d="M1339.93,86.49a11.45,11.45,0,0,1-4.25-1.56c-.21-.13-5-3.22-4.79-7.2.2-3.16,3.51-5.55,6.59-6,3.59-.55,7.65,1.34,10.41,3a37.87,37.87,0,0,1,5.24,3.86l0,0v0l-1.23,4.79h0A17.13,17.13,0,0,1,1339.93,86.49Zm.57-14.66a9.76,9.76,0,0,0-3,0c-3,.47-6.33,2.83-6.52,5.94-.25,3.94,4.54,7,4.75,7.12,4.36,2.74,10.68,2.15,16.11-1.48l1.21-4.73a37.58,37.58,0,0,0-5.2-3.83A21.48,21.48,0,0,0,1340.5,71.83Z"/>
    </g>
    <circle class="cls-7" cx="1354.81" cy="81.64" r="9.53"/>
    <g>
      <ellipse class="cls-8" cx="1353.26" cy="78.97" rx="2.13" ry="1.08" transform="translate(1063.22 1403.14) rotate(-80.98)"/>
      <ellipse class="cls-8" cx="1356.98" cy="79.48" rx="2.13" ry="1.08" transform="matrix(0.16, -0.99, 0.99, 0.16, 1065.84, 1407.25)"/>
      <g>
        <path class="cls-8" d="M1347.15,82.25a1.87,1.87,0,0,0,2.5-.88c.07-.15-.18-.27-.25-.11a1.59,1.59,0,0,1-2.14.75c-.15-.08-.26.16-.11.24Z"/>
        <path class="cls-8" d="M1361.64,84.87a1.6,1.6,0,0,1-1.89-1.25.14.14,0,0,0-.27,0,1.87,1.87,0,0,0,2.19,1.49c.17,0,.14-.31,0-.27Z"/>
        <path class="cls-8" d="M1348.44,82.21a8.38,8.38,0,0,0,1.34,2.91,7.23,7.23,0,0,0,1.94,1.92,5.74,5.74,0,0,0,3.56.91,6.44,6.44,0,0,0,2.57-.77,6.64,6.64,0,0,0,2.39-2.14l.15-.22c.09-.15-.12-.32-.21-.17a6.55,6.55,0,0,1-2.24,2.17,3.22,3.22,0,0,1-.37.2l-.48.22a6.5,6.5,0,0,1-1.37.39,5.5,5.5,0,0,1-3.51-.61,6.58,6.58,0,0,1-2.07-1.86,8.21,8.21,0,0,1-1.35-2.65l-.09-.33c0-.17-.3-.14-.26,0Z"/>
      </g>
    </g>
  </g>
  <g>
    <g>
      <path class="cls-6" d="M1048,165.31c-6.47-.11-12-3.12-13.91-7.82-.16-.37-2.16-5.38.34-8.39,2-2.4,6-2.48,8.79-1.13,6.23,3,8.56,14.2,8.56,14.2h0Z"/>
      <path d="M1048,165.36h0c-6.54-.12-12-3.2-14-7.85-.09-.22-2.2-5.39.34-8.44,2-2.42,6.08-2.48,8.85-1.14,6.15,3,8.49,13.77,8.58,14.23v0l0,0Zm-9.25-18.2a6,6,0,0,0-4.31,2c-2.5,3-.42,8.13-.33,8.34,1.92,4.62,7.35,7.68,13.86,7.8l3.74-3.11c-.16-.74-2.51-11.24-8.53-14.15A9.11,9.11,0,0,0,1038.79,147.16Z"/>
    </g>
    <g>
      <path class="cls-6" d="M1056.35,162.37c4.11-5,5.38-11.13,3.06-15.66-.18-.36-2.7-5.14-6.6-5.18-3.12,0-5.78,3-6.57,5.95-1.74,6.7,5.27,15.73,5.27,15.73h0Z"/>
      <path d="M1051.49,163.26l0,0c-.28-.37-7-9.16-5.27-15.77.78-3,3.46-6,6.61-6,4,.05,6.54,5,6.64,5.21,2.3,4.48,1.09,10.65-3.07,15.71h0Zm1-21.68c-2.94.19-5.41,3.09-6.15,5.91-.9,3.44.57,7.5,2,10.31a35.31,35.31,0,0,0,3.29,5.36l4.79-.83c4.13-5,5.33-11.15,3-15.6-.1-.21-2.65-5.11-6.56-5.16Z"/>
    </g>
    <g>
      <path class="cls-6" d="M1053.85,160.81c2.2-6.08,6.82-10.3,11.9-10.62.41,0,5.8-.3,7.83,3,1.62,2.66.4,6.48-1.78,8.68-4.87,4.92-16.21,3.49-16.21,3.49h0Z"/>
      <path d="M1061.58,165.57a36.08,36.08,0,0,1-6-.12h0v0l-1.75-4.61h0c2.23-6.15,6.91-10.32,11.93-10.65h0c.24,0,5.81-.32,7.87,3.07,1.64,2.68.38,6.55-1.79,8.73-2.51,2.55-6.78,3.37-9.92,3.6Zm-6-.21a34.2,34.2,0,0,0,6.29.09c3.12-.23,7.36-1,9.86-3.57,2.14-2.16,3.39-6,1.77-8.63-2-3.34-7.55-3-7.78-3h0c-5,.32-9.62,4.47-11.84,10.57Z"/>
    </g>
    <g>
      <path class="cls-6" d="M1055.83,164.93c5.67-3.13,11.92-3.26,16-.16.32.25,4.56,3.59,3.89,7.44-.53,3.07-4,5.14-7,5.37-6.9.5-14.51-8-14.51-8h0Z"/>
      <path d="M1068.58,177.63c-6.8.44-14.18-7.71-14.49-8.06l0,0v0l1.71-4.62h0c5.72-3.17,12-3.24,16-.17.18.15,4.58,3.58,3.9,7.49-.53,3.1-4,5.18-7.09,5.4Zm-14.41-8.1c.51.56,7.74,8.44,14.4,8h0c3-.22,6.49-2.27,7-5.33.66-3.85-3.69-7.25-3.88-7.39-4-3.05-10.2-3-15.89.16Z"/>
    </g>
    <g>
      <path class="cls-6" d="M1050.38,170.56c-1.44,6.31.16,12.36,4.26,15.38.33.24,4.71,3.39,8.23,1.68,2.8-1.36,3.84-5.23,3.2-8.26-1.42-6.77-11.73-11.71-11.73-11.71h0Z"/>
      <path d="M1061,188.15c-3.09.21-6.21-2.06-6.36-2.17-4.06-3-5.74-9-4.28-15.43v0h0l4-2.94,0,0a34.55,34.55,0,0,1,5.37,3.34c2.51,1.9,5.66,4.9,6.4,8.4.63,3-.4,6.94-3.23,8.31A5,5,0,0,1,1061,188.15Zm-10.56-17.56c-1.44,6.34.22,12.35,4.25,15.32.16.11,3.25,2.36,6.3,2.16a5.09,5.09,0,0,0,1.88-.49c2.79-1.35,3.81-5.24,3.18-8.21-.73-3.47-3.86-6.46-6.36-8.35a35.91,35.91,0,0,0-5.33-3.32Z"/>
    </g>
    <g>
      <path class="cls-6" d="M1050.83,170.32c2.51,6,2,12.2-1.54,15.88-.28.29-4.06,4.15-7.81,3.08-3-.86-4.69-4.49-4.59-7.59.24-6.92,9.55-13.56,9.55-13.56h0Z"/>
      <path d="M1043.19,189.5a5.4,5.4,0,0,1-1.73-.18c-3-.87-4.72-4.56-4.61-7.63.12-3.58,2.71-7.08,4.85-9.39a35.57,35.57,0,0,1,4.71-4.21l0,0,0,0,4.41,2.19v0c2.54,6,1.93,12.29-1.55,15.93C1049.18,186.38,1046.37,189.29,1043.19,189.5Zm3.25-21.32a35.25,35.25,0,0,0-4.67,4.19c-2.14,2.29-4.71,5.77-4.83,9.32-.11,3,1.57,6.69,4.55,7.54,3.76,1.08,7.61-2.89,7.77-3.06,3.45-3.62,4-9.83,1.54-15.82Z"/>
    </g>
    <g>
      <path class="cls-6" d="M1050.09,170.9c-4.47,4.73-10.5,6.76-15.44,5-.39-.14-5.62-2-6.24-5.93-.5-3.1,2.14-6.13,5.07-7.28,6.54-2.59,16.74,3.25,16.74,3.26h0Z"/>
      <path d="M1039.12,176.55a11.28,11.28,0,0,1-4.49-.58c-.23-.08-5.63-2-6.27-6-.5-3.13,2.2-6.19,5.1-7.33,3.38-1.34,7.76-.39,10.83.64a36.1,36.1,0,0,1,6,2.62h0v0l-.14,4.94h0A17.1,17.1,0,0,1,1039.12,176.55Zm-2.69-14.41a9.29,9.29,0,0,0-2.93.62c-2.87,1.13-5.54,4.15-5,7.24.63,3.89,6,5.81,6.21,5.89,4.86,1.7,10.9-.27,15.38-5l.14-4.88a38.15,38.15,0,0,0-5.92-2.59A21.21,21.21,0,0,0,1036.43,162.14Z"/>
    </g>
    <circle class="cls-7" cx="1052.56" cy="168.54" r="9.53"/>
    <g>
      <ellipse class="cls-8" cx="1050.46" cy="166.27" rx="1.08" ry="2.13" transform="translate(-8.64 69.25) rotate(-3.76)"/>
      <ellipse class="cls-8" cx="1054.2" cy="165.95" rx="1.08" ry="2.13" transform="translate(-8.61 69.49) rotate(-3.76)"/>
      <g>
        <path class="cls-8" d="M1045.22,170.83a1.88,1.88,0,0,0,2.25-1.41.14.14,0,0,0-.27-.06,1.58,1.58,0,0,1-1.92,1.2c-.17,0-.22.22-.06.27Z"/>
        <path class="cls-8" d="M1059.94,170.18a1.6,1.6,0,0,1-2.12-.81c-.07-.16-.32-.07-.26.09a1.87,1.87,0,0,0,2.47,1c.15-.07.07-.33-.09-.25Z"/>
        <path class="cls-8" d="M1046.47,170.5a8.62,8.62,0,0,0,2,2.54,7.17,7.17,0,0,0,2.32,1.44,5.66,5.66,0,0,0,3.68.1,6.41,6.41,0,0,0,2.33-1.31,6.84,6.84,0,0,0,1.86-2.62l.09-.25c.06-.16-.18-.28-.24-.12a6.61,6.61,0,0,1-1.7,2.62l-.32.28a4.56,4.56,0,0,1-.42.31,6.29,6.29,0,0,1-1.25.68,5.5,5.5,0,0,1-3.56.19,6.6,6.6,0,0,1-2.42-1.36,8.53,8.53,0,0,1-1.91-2.28l-.15-.31c-.08-.15-.34-.07-.26.09Z"/>
      </g>
    </g>
  </g>
  <g>
    <g>
      <path class="cls-6" d="M800.1,120.47c-6.28-1.57-10.94-5.74-11.78-10.77-.07-.39-.88-5.73,2.23-8.09,2.49-1.88,6.41-1.06,8.82.89,5.39,4.34,5.12,15.77,5.12,15.77h0Z"/>
      <path d="M800.11,120.52h0c-6.35-1.6-11-5.84-11.81-10.81,0-.23-.92-5.74,2.24-8.14,2.51-1.9,6.48-1,8.88.89,5.32,4.29,5.14,15.34,5.14,15.81v0h0Zm-4.89-19.82a6,6,0,0,0-4.64,1c-3.12,2.36-2.25,7.82-2.21,8,.82,4.93,5.42,9.14,11.73,10.72l4.35-2.18c0-.75.1-11.51-5.11-15.71A9.08,9.08,0,0,0,795.22,100.7Z"/>
    </g>
    <g>
      <path class="cls-6" d="M808.88,119.49c5.14-3.94,7.76-9.62,6.53-14.56-.1-.39-1.47-5.61-5.26-6.54-3-.74-6.3,1.57-7.74,4.32-3.22,6.12,1.56,16.51,1.56,16.51h0Z"/>
      <path d="M803.94,119.26v0c-.19-.42-4.74-10.5-1.56-16.55,1.43-2.72,4.74-5.08,7.79-4.33,3.85.94,5.24,6.34,5.29,6.57,1.22,4.89-1.35,10.63-6.55,14.61h0Zm5.84-20.9c-2.91-.48-6,1.78-7.33,4.37-1.65,3.14-1.15,7.43-.43,10.47a34.35,34.35,0,0,0,2,6l4.86.28c5.16-4,7.71-9.65,6.51-14.51-.06-.22-1.43-5.58-5.23-6.51Z"/>
    </g>
    <g>
      <path class="cls-6" d="M806.79,117.41c3.53-5.43,9-8.49,14-7.65.4.07,5.71,1,6.93,4.74,1,3-1.08,6.4-3.7,8-5.85,3.69-16.58-.27-16.58-.27h0Z"/>
      <path d="M813.25,123.79a33.82,33.82,0,0,1-5.81-1.47h0v0l-.66-4.88h0c3.55-5.48,9.06-8.49,14-7.68h0c.23,0,5.72,1,7,4.76,1,3-1.12,6.47-3.72,8.11-3,1.9-7.37,1.73-10.48,1.26Zm-5.76-1.54a36.58,36.58,0,0,0,6.1,1.51c3.1.47,7.42.64,10.42-1.25,2.57-1.62,4.65-5.05,3.68-8-1.23-3.72-6.67-4.67-6.9-4.7h0c-4.93-.81-10.39,2.18-13.93,7.62Z"/>
    </g>
    <g>
      <path class="cls-6" d="M807.79,121.87c6.23-1.76,12.35-.48,15.58,3.46.26.31,3.63,4.53,2.11,8.13-1.22,2.87-5,4.11-8.09,3.63C810.56,136,805.08,126,805.08,126h0Z"/>
      <path d="M817.33,137.12c-6.72-1.1-12.06-10.72-12.28-11.13l0,0,0,0,2.71-4.11h0c6.29-1.79,12.43-.42,15.63,3.47.15.19,3.65,4.52,2.11,8.18-1.23,2.89-5.1,4.13-8.14,3.65ZM805.14,126c.36.66,5.62,10,12.21,11.07h0c3,.48,6.83-.74,8-3.6,1.52-3.6-2-7.9-2.1-8.08-3.18-3.87-9.26-5.22-15.52-3.45Z"/>
    </g>
    <g>
      <path class="cls-6" d="M801.21,126.12c-2.83,5.82-2.64,12.08.66,15.95.27.3,3.83,4.36,7.64,3.5,3-.69,4.93-4.23,5-7.32.14-6.92-8.78-14.07-8.78-14.07h0Z"/>
      <path d="M807.55,145.66c-3.06-.5-5.58-3.41-5.71-3.56-3.27-3.84-3.54-10.12-.67-16h0l4.54-2,0,0a35.63,35.63,0,0,1,4.47,4.47c2,2.42,4.4,6.06,4.33,9.64-.07,3.07-2,6.67-5,7.36A5.24,5.24,0,0,1,807.55,145.66Zm-6.3-19.5c-2.85,5.84-2.59,12.08.66,15.88.13.15,2.63,3,5.65,3.53a5.08,5.08,0,0,0,1.94,0c3-.68,4.89-4.24,5-7.27.07-3.55-2.3-7.17-4.31-9.58a34.77,34.77,0,0,0-4.44-4.44Z"/>
    </g>
    <g>
      <path class="cls-6" d="M801.7,126c1.1,6.39-.84,12.34-5.1,15.13-.33.22-4.89,3.12-8.3,1.22-2.73-1.51-3.56-5.43-2.75-8.43,1.8-6.68,12.37-11,12.37-11h0Z"/>
      <path d="M789.91,142.93a5.07,5.07,0,0,1-1.64-.56c-2.75-1.53-3.56-5.51-2.76-8.48.93-3.46,4.24-6.28,6.85-8a36.14,36.14,0,0,1,5.54-3h0l0,0,3.8,3.14v0c1.1,6.45-.91,12.4-5.12,15.16C796.46,141.25,793.06,143.45,789.91,142.93Zm8-20a34.93,34.93,0,0,0-5.5,3c-2.6,1.75-5.89,4.56-6.82,8-.79,2.93,0,6.87,2.73,8.37,3.42,1.9,8.06-1.09,8.26-1.22,4.18-2.74,6.18-8.65,5.08-15.06Z"/>
    </g>
    <g>
      <path class="cls-6" d="M800.85,126.38c-5.42,3.6-11.76,4.21-16.18,1.4-.35-.22-5-3.26-4.74-7.18.22-3.14,3.48-5.48,6.6-5.95,7-1,15.56,7,15.56,7h0Z"/>
      <path d="M788.89,129.41a11.37,11.37,0,0,1-4.25-1.59c-.2-.13-5-3.24-4.75-7.23.22-3.16,3.54-5.52,6.63-6,3.59-.54,7.64,1.38,10.39,3.08a37.8,37.8,0,0,1,5.21,3.89l0,0v0l-1.26,4.78h0A17.13,17.13,0,0,1,788.89,129.41Zm.64-14.66a9.75,9.75,0,0,0-3,0c-3,.45-6.34,2.78-6.55,5.9-.27,3.93,4.51,7,4.71,7.14,4.35,2.76,10.67,2.22,16.12-1.39l1.23-4.72a37.08,37.08,0,0,0-5.17-3.86A21.39,21.39,0,0,0,789.53,114.75Z"/>
    </g>
    <circle class="cls-7" cx="803.79" cy="124.64" r="9.53"/>
    <g>
      <ellipse class="cls-8" cx="802.26" cy="121.96" rx="2.13" ry="1.08" transform="translate(551.78 893.81) rotate(-80.66)"/>
      <ellipse class="cls-8" cx="805.97" cy="122.5" rx="2.13" ry="1.08" transform="translate(554.36 897.92) rotate(-80.66)"/>
      <g>
        <path class="cls-8" d="M796.13,125.21a1.86,1.86,0,0,0,2.5-.86c.07-.16-.17-.28-.24-.12a1.61,1.61,0,0,1-2.15.74c-.15-.08-.27.16-.11.24Z"/>
        <path class="cls-8" d="M810.61,127.91a1.6,1.6,0,0,1-1.89-1.26.14.14,0,0,0-.27,0,1.87,1.87,0,0,0,2.18,1.5c.17,0,.15-.31,0-.27Z"/>
        <path class="cls-8" d="M797.41,125.17a8.5,8.5,0,0,0,1.33,2.92,7.09,7.09,0,0,0,1.93,1.93,5.74,5.74,0,0,0,3.56.93,6.42,6.42,0,0,0,2.57-.75,6.86,6.86,0,0,0,2.41-2.13l.14-.22c.09-.14-.11-.32-.21-.17a6.38,6.38,0,0,1-2.25,2.16,3.22,3.22,0,0,1-.37.2,5,5,0,0,1-.48.21,5.93,5.93,0,0,1-1.37.38,5.49,5.49,0,0,1-3.51-.62,6.7,6.7,0,0,1-2.06-1.87,8.41,8.41,0,0,1-1.33-2.66l-.09-.33c0-.17-.31-.15-.27,0Z"/>
      </g>
    </g>
  </g>
  <g>
    <g>
      <path class="cls-6" d="M1648,79.34c-6.47-.07-12-3-14-7.72-.15-.37-2.19-5.37.28-8.39,2-2.42,6-2.53,8.78-1.2,6.25,3,8.67,14.14,8.67,14.14h0Z"/>
      <path d="M1648,79.38h0c-6.54-.06-12-3.1-14-7.74-.09-.22-2.23-5.37.29-8.44,2-2.43,6-2.53,8.83-1.21,6.18,2.93,8.59,13.71,8.69,14.17v0l0,0Zm-9.38-18.12a5.94,5.94,0,0,0-4.29,2c-2.49,3-.37,8.13-.28,8.34,2,4.61,7.41,7.62,13.92,7.69l3.72-3.13c-.17-.74-2.59-11.22-8.64-14.09A9,9,0,0,0,1638.66,61.26Z"/>
    </g>
    <g>
      <path class="cls-6" d="M1656.33,76.33c4.07-5,5.3-11.16,3-15.68-.19-.36-2.74-5.11-6.64-5.13-3.12,0-5.76,3-6.52,6-1.7,6.71,5.38,15.69,5.38,15.69h0Z"/>
      <path d="M1651.48,77.26l0,0c-.29-.37-7.06-9.1-5.39-15.73.76-3,3.42-6,6.57-6,4,0,6.57,5,6.68,5.16,2.32,4.47,1.16,10.65-3,15.73v0Zm.79-21.68c-2.94.21-5.39,3.12-6.11,6-.87,3.44.62,7.5,2,10.29a35.88,35.88,0,0,0,3.32,5.34l4.79-.87c4.09-5.05,5.25-11.18,2.94-15.62-.11-.21-2.69-5.09-6.6-5.11Z"/>
    </g>
    <g>
      <path class="cls-6" d="M1653.81,74.8c2.16-6.11,6.76-10.35,11.84-10.71.4,0,5.79-.34,7.84,3,1.64,2.66.45,6.48-1.71,8.7-4.83,5-16.19,3.61-16.19,3.61h0Z"/>
      <path d="M1661.58,79.5a36,36,0,0,1-6-.08h0v0l-1.78-4.59v0c2.18-6.16,6.83-10.37,11.85-10.73h0c.24,0,5.8-.37,7.89,3,1.66,2.67.43,6.55-1.72,8.75-2.5,2.56-6.76,3.41-9.89,3.67Zm-6-.16a36.67,36.67,0,0,0,6.29,0c3.12-.26,7.36-1.1,9.84-3.64,2.12-2.18,3.34-6,1.71-8.64-2.06-3.33-7.58-3-7.81-3h0c-5,.37-9.6,4.55-11.77,10.67Z"/>
    </g>
    <g>
      <path class="cls-6" d="M1655.83,78.9c5.64-3.17,11.89-3.35,16-.27.33.24,4.59,3.55,4,7.41-.51,3.07-3.93,5.17-7,5.42-6.9.55-14.57-7.94-14.57-7.94h0Z"/>
      <path d="M1668.67,91.5c-6.8.5-14.24-7.6-14.55-8l0,0v0l1.68-4.64h0c5.7-3.21,12-3.32,16-.28.19.14,4.61,3.54,4,7.45-.51,3.11-4,5.22-7,5.46Zm-14.47-8c.51.56,7.8,8.39,14.46,7.9h0c3-.24,6.47-2.32,7-5.38.63-3.86-3.75-7.23-3.93-7.37-4-3-10.23-2.91-15.9.28Z"/>
    </g>
    <g>
      <path class="cls-6" d="M1650.42,84.57c-1.4,6.32.25,12.36,4.37,15.35.33.24,4.74,3.35,8.24,1.62,2.8-1.38,3.81-5.26,3.15-8.28-1.48-6.76-11.83-11.63-11.83-11.63h0Z"/>
      <path d="M1661.15,102.09c-3.09.22-6.23-2-6.38-2.13-4.08-3-5.81-9-4.39-15.4v0h0l3.95-3,0,0a34.43,34.43,0,0,1,5.39,3.3c2.53,1.88,5.7,4.86,6.46,8.36.66,3-.35,6.94-3.17,8.33A5,5,0,0,1,1661.15,102.09ZM1650.46,84.6c-1.4,6.35.31,12.35,4.36,15.28.15.12,3.26,2.34,6.32,2.12a5.06,5.06,0,0,0,1.87-.5c2.78-1.37,3.77-5.26,3.12-8.23-.76-3.47-3.91-6.43-6.42-8.31a36,36,0,0,0-5.35-3.28Z"/>
    </g>
    <g>
      <path class="cls-6" d="M1650.87,84.32c2.55,6,2.06,12.19-1.43,15.9-.27.29-4,4.18-7.79,3.13-3-.84-4.72-4.46-4.64-7.55.19-6.92,9.45-13.64,9.45-13.64h0Z"/>
      <path d="M1643.36,103.56a5.06,5.06,0,0,1-1.72-.17c-3-.84-4.76-4.52-4.67-7.59.1-3.58,2.66-7.1,4.78-9.42a35.23,35.23,0,0,1,4.68-4.25l0,0h0l4.42,2.17h0c2.58,6,2,12.28-1.44,16C1649.34,100.4,1646.54,103.32,1643.36,103.56Zm3.1-21.34a35.12,35.12,0,0,0-4.64,4.22c-2.12,2.31-4.66,5.81-4.76,9.36-.09,3,1.61,6.67,4.6,7.51,3.77,1,7.59-3,7.75-3.12,3.42-3.64,4-9.86,1.42-15.83Z"/>
    </g>
    <g>
      <path class="cls-6" d="M1650.13,84.91c-4.43,4.76-10.45,6.84-15.41,5.14-.39-.13-5.62-2-6.28-5.88-.52-3.1,2.11-6.14,5-7.32,6.52-2.63,16.77,3.14,16.77,3.14h0Z"/>
      <path d="M1639.2,90.64a11.09,11.09,0,0,1-4.49-.55c-.23-.08-5.65-2-6.31-5.91-.53-3.13,2.15-6.2,5-7.37,3.37-1.37,7.74-.44,10.82.57a36.51,36.51,0,0,1,6,2.57h0v0l-.1,4.94h0A17,17,0,0,1,1639.2,90.64Zm-2.79-14.39a9.59,9.59,0,0,0-2.93.64c-2.86,1.16-5.51,4.19-5,7.27.65,3.89,6,5.77,6.25,5.85,4.87,1.67,10.89-.34,15.34-5.12l.1-4.88a37.16,37.16,0,0,0-5.93-2.55A21.3,21.3,0,0,0,1636.41,76.25Z"/>
    </g>
    <circle class="cls-7" cx="1652.58" cy="82.53" r="9.53"/>
    <g>
      <ellipse class="cls-8" cx="1650.47" cy="80.28" rx="1.08" ry="2.13" transform="translate(-1.47 120.3) rotate(-4.17)"/>
      <ellipse class="cls-8" cx="1654.2" cy="79.94" rx="1.08" ry="2.13" transform="translate(-1.43 120.57) rotate(-4.17)"/>
      <g>
        <path class="cls-8" d="M1645.26,84.88a1.88,1.88,0,0,0,2.24-1.43c0-.17-.24-.23-.27-.06a1.59,1.59,0,0,1-1.91,1.22c-.17,0-.22.22-.06.27Z"/>
        <path class="cls-8" d="M1660,84.12a1.59,1.59,0,0,1-2.12-.79c-.07-.16-.32-.07-.26.09a1.88,1.88,0,0,0,2.48,1c.15-.07.06-.33-.1-.25Z"/>
        <path class="cls-8" d="M1646.51,84.54a8.47,8.47,0,0,0,2,2.52,7.08,7.08,0,0,0,2.33,1.43,5.7,5.7,0,0,0,3.67.07,6.6,6.6,0,0,0,2.33-1.33,6.82,6.82,0,0,0,1.84-2.63l.09-.25c.06-.16-.19-.28-.24-.12a6.63,6.63,0,0,1-1.68,2.63l-.32.28c-.14.11-.27.22-.42.32a6.25,6.25,0,0,1-1.24.69,5.5,5.5,0,0,1-3.56.21,6.64,6.64,0,0,1-2.44-1.34,8.4,8.4,0,0,1-1.92-2.27l-.16-.3c-.07-.16-.33-.07-.25.09Z"/>
      </g>
    </g>
  </g>
  <g>
    <g>
      <path class="cls-6" d="M1544.16,175.22c-6.15-2-10.5-6.52-11-11.59,0-.4-.47-5.78,2.81-7.91,2.61-1.7,6.46-.6,8.73,1.51,5.06,4.72,4,16.1,4,16.1h0Z"/>
      <path d="M1544.17,175.26h0c-6.22-2-10.54-6.6-11-11.62,0-.24-.5-5.79,2.82-8,2.64-1.71,6.54-.57,8.79,1.52,5,4.66,4,15.67,4,16.14v0l0,0Zm-3.46-20.11a6,6,0,0,0-4.7.61c-3.28,2.13-2.8,7.64-2.78,7.87.46,5,4.76,9.51,10.93,11.54l4.5-1.87c.06-.75.92-11.47-4-16A9,9,0,0,0,1540.71,155.15Z"/>
    </g>
    <g>
      <path class="cls-6" d="M1553,174.87c5.41-3.57,8.43-9,7.56-14.06-.07-.4-1.07-5.71-4.79-6.9-3-1-6.39,1.12-8,3.75-3.65,5.88.38,16.58.38,16.58h0Z"/>
      <path d="M1548.09,174.28v0c-.17-.44-4-10.82-.38-16.62,1.62-2.62,5.09-4.74,8.08-3.78,3.78,1.22,4.77,6.71,4.81,6.94.86,5-2.11,10.5-7.58,14.1h0Zm7.31-20.43c-2.87-.68-6.09,1.35-7.63,3.83-1.87,3-1.67,7.33-1.17,10.42a34.78,34.78,0,0,0,1.55,6.1l4.83.62c5.42-3.58,8.38-9.08,7.52-14,0-.23-1-5.67-4.75-6.87Z"/>
    </g>
    <g>
      <path class="cls-6" d="M1551.06,172.64c3.9-5.16,9.56-7.82,14.51-6.63.4.09,5.63,1.43,6.58,5.22.76,3-1.53,6.31-4.26,7.77-6.11,3.26-16.52-1.46-16.52-1.46h0Z"/>
      <path d="M1557,179.47a34.56,34.56,0,0,1-5.69-1.89h0v0l-.31-4.91v0c3.94-5.21,9.65-7.82,14.54-6.65h0c.23.05,5.64,1.4,6.61,5.25.76,3.05-1.58,6.37-4.29,7.82-3.16,1.68-7.48,1.2-10.54.5Zm-5.63-2a34.45,34.45,0,0,0,6,2c3,.69,7.35,1.17,10.48-.5,2.68-1.43,5-4.71,4.24-7.72-1-3.8-6.32-5.13-6.55-5.19h0c-4.86-1.16-10.52,1.43-14.44,6.61Z"/>
    </g>
    <g>
      <path class="cls-6" d="M1551.74,177.16c6.33-1.32,12.35.41,15.29,4.56.23.33,3.29,4.78,1.52,8.26-1.42,2.78-5.31,3.74-8.33,3-6.74-1.56-11.48-12-11.48-12h0Z"/>
      <path d="M1560.16,193.06c-6.63-1.59-11.26-11.56-11.46-12v0l0,0,3-3.91h0c6.4-1.33,12.42.46,15.34,4.58.13.19,3.32,4.77,1.52,8.3-1.43,2.81-5.38,3.76-8.38,3.07Zm-11.37-12c.32.69,4.9,10.36,11.39,11.91h0c3,.69,6.87-.26,8.28-3,1.78-3.48-1.38-8-1.52-8.21-2.89-4.08-8.86-5.87-15.23-4.55Z"/>
    </g>
    <g>
      <path class="cls-6" d="M1544.87,180.93c-3.25,5.6-3.5,11.85-.48,15.95.24.33,3.5,4.63,7.36,4,3.09-.47,5.22-3.86,5.51-6.95.63-6.89-7.75-14.66-7.75-14.66h0Z"/>
      <path d="M1549.79,200.87c-3-.72-5.32-3.8-5.43-4-3-4.06-2.81-10.34.47-16v0h0l4.67-1.63,0,0a35.71,35.71,0,0,1,4.14,4.78c1.83,2.56,4,6.35,3.62,9.92-.28,3.06-2.43,6.51-5.54,7A5,5,0,0,1,1549.79,200.87ZM1544.9,181c-3.25,5.63-3.44,11.86-.47,15.89.11.15,2.4,3.21,5.38,3.92a4.85,4.85,0,0,0,1.94.09c3.06-.46,5.18-3.87,5.46-6.9.33-3.54-1.78-7.31-3.61-9.86a35.66,35.66,0,0,0-4.1-4.75Z"/>
    </g>
    <g>
      <path class="cls-6" d="M1545.37,180.83c.63,6.44-1.72,12.24-6.17,14.72-.35.19-5.1,2.76-8.37.63-2.61-1.71-3.16-5.68-2.14-8.61,2.28-6.53,13.13-10.13,13.13-10.13h0Z"/>
      <path d="M1532.4,196.89a5,5,0,0,1-1.6-.68c-2.63-1.72-3.16-5.75-2.15-8.65,1.18-3.38,4.68-6,7.41-7.53a35.65,35.65,0,0,1,5.74-2.64h0l3.56,3.41h0c.65,6.52-1.78,12.31-6.19,14.77C1539.05,195.68,1535.5,197.63,1532.4,196.89Zm9.41-19.4a35.27,35.27,0,0,0-5.7,2.62c-2.72,1.56-6.21,4.12-7.37,7.48-1,2.87-.48,6.85,2.11,8.55,3.28,2.14,8.13-.52,8.33-.63,4.37-2.44,6.78-8.19,6.15-14.66Z"/>
    </g>
    <g>
      <path class="cls-6" d="M1544.49,181.16c-5.67,3.2-12,3.36-16.24.25-.33-.25-4.76-3.61-4.21-7.51.44-3.11,3.86-5.22,7-5.46,7-.54,15,8.06,15,8.06h0Z"/>
      <path d="M1532.34,183.33a11.4,11.4,0,0,1-4.12-1.89c-.19-.14-4.78-3.59-4.22-7.55.44-3.13,3.92-5.26,7-5.49,3.62-.28,7.52,1.92,10.14,3.81a37,37,0,0,1,4.92,4.26l0,0v0l-1.59,4.67h0A17.11,17.11,0,0,1,1532.34,183.33Zm1.69-14.57a9.8,9.8,0,0,0-3-.28c-3.07.24-6.52,2.33-7,5.43-.56,3.9,4,7.32,4.19,7.46,4.13,3.06,10.48,3,16.17-.24l1.57-4.62a37.61,37.61,0,0,0-4.89-4.22A21.29,21.29,0,0,0,1534,168.76Z"/>
    </g>
    <circle class="cls-7" cx="1547.54" cy="179.64" r="9.53"/>
    <g>
      <ellipse class="cls-8" cx="1546.21" cy="176.85" rx="2.13" ry="1.08" transform="translate(1015.06 1639.7) rotate(-76.57)"/>
      <ellipse class="cls-8" cx="1549.88" cy="177.66" rx="2.13" ry="1.08" transform="translate(1017.1 1643.88) rotate(-76.57)"/>
      <g>
        <path class="cls-8" d="M1539.86,179.66a1.86,1.86,0,0,0,2.56-.69c.08-.15-.15-.28-.23-.13a1.6,1.6,0,0,1-2.2.58c-.15-.09-.27.15-.13.24Z"/>
        <path class="cls-8" d="M1554.11,183.39a1.61,1.61,0,0,1-1.79-1.4c0-.17-.28-.16-.27,0a1.88,1.88,0,0,0,2.07,1.66c.17,0,.16-.3,0-.27Z"/>
        <path class="cls-8" d="M1541.15,179.71a8.48,8.48,0,0,0,1.11,3,7.35,7.35,0,0,0,1.79,2.06,5.69,5.69,0,0,0,3.48,1.18,6.4,6.4,0,0,0,2.62-.57,6.68,6.68,0,0,0,2.55-1.95,1.56,1.56,0,0,0,.16-.2c.11-.14-.09-.33-.19-.19a6.42,6.42,0,0,1-2.4,2l-.39.18-.49.18a6.59,6.59,0,0,1-1.39.28,5.55,5.55,0,0,1-3.46-.88,6.58,6.58,0,0,1-1.92-2,8.31,8.31,0,0,1-1.14-2.75l-.06-.34c0-.16-.3-.16-.27,0Z"/>
      </g>
    </g>
  </g>
  <g>
    <g>
      <path class="cls-6" d="M1802.16,123.22c-6.15-2-10.5-6.52-11-11.59,0-.4-.47-5.78,2.81-7.91,2.61-1.7,6.46-.6,8.73,1.51,5.06,4.72,4,16.1,4,16.1h0Z"/>
      <path d="M1802.17,123.26h0c-6.22-2-10.54-6.6-11-11.62,0-.24-.5-5.79,2.82-8,2.64-1.71,6.54-.57,8.79,1.52,5,4.66,4,15.67,4,16.14v0l0,0Zm-3.46-20.11a6,6,0,0,0-4.7.61c-3.28,2.13-2.8,7.64-2.78,7.87.46,5,4.76,9.51,10.93,11.54l4.5-1.87c.06-.75.92-11.47-4-16A9,9,0,0,0,1798.71,103.15Z"/>
    </g>
    <g>
      <path class="cls-6" d="M1811,122.87c5.41-3.57,8.43-9,7.56-14.06-.07-.4-1.07-5.71-4.79-6.9-3-1-6.39,1.12-8,3.75-3.65,5.88.38,16.58.38,16.58h0Z"/>
      <path d="M1806.09,122.28v0c-.17-.44-4-10.82-.38-16.62,1.62-2.62,5.09-4.74,8.08-3.78,3.78,1.22,4.77,6.71,4.81,6.94.86,5-2.11,10.5-7.58,14.1h0Zm7.31-20.43c-2.87-.68-6.09,1.35-7.63,3.83-1.87,3-1.67,7.33-1.17,10.42a34.78,34.78,0,0,0,1.55,6.1l4.83.62c5.42-3.58,8.38-9.08,7.52-14,0-.23-1-5.67-4.75-6.87Z"/>
    </g>
    <g>
      <path class="cls-6" d="M1809.06,120.64c3.9-5.16,9.56-7.82,14.51-6.63.4.09,5.63,1.43,6.58,5.22.76,3-1.53,6.31-4.26,7.77-6.11,3.26-16.52-1.46-16.52-1.46h0Z"/>
      <path d="M1815,127.47a34.56,34.56,0,0,1-5.69-1.89h0v0l-.31-4.91v0c3.94-5.21,9.65-7.82,14.54-6.65h0c.23,0,5.64,1.4,6.61,5.25.76,3-1.58,6.37-4.29,7.82-3.16,1.68-7.48,1.2-10.54.5Zm-5.63-2a34.45,34.45,0,0,0,6,1.95c3,.69,7.35,1.17,10.48-.5,2.68-1.43,5-4.71,4.24-7.72-1-3.8-6.32-5.13-6.55-5.19h0c-4.86-1.16-10.52,1.43-14.44,6.61Z"/>
    </g>
    <g>
      <path class="cls-6" d="M1809.74,125.16c6.33-1.32,12.35.41,15.29,4.56.23.33,3.29,4.78,1.52,8.26-1.42,2.78-5.31,3.74-8.33,3-6.74-1.56-11.48-12-11.48-12h0Z"/>
      <path d="M1818.16,141.06c-6.63-1.59-11.26-11.56-11.46-12v0l0,0,3-3.91h0c6.4-1.33,12.42.46,15.34,4.58.13.19,3.32,4.77,1.52,8.3-1.43,2.81-5.38,3.76-8.38,3.07Zm-11.37-12c.32.69,4.9,10.36,11.39,11.91h0c3,.69,6.87-.26,8.28-3,1.78-3.48-1.38-8-1.52-8.21-2.89-4.08-8.86-5.87-15.23-4.55Z"/>
    </g>
    <g>
      <path class="cls-6" d="M1802.87,128.93c-3.25,5.6-3.5,11.85-.48,15.95.24.33,3.5,4.63,7.36,4,3.09-.47,5.22-3.86,5.51-6.95.63-6.89-7.75-14.66-7.75-14.66h0Z"/>
      <path d="M1807.79,148.87c-3-.72-5.32-3.8-5.43-4-3-4.06-2.81-10.34.47-16v0h0l4.67-1.63,0,0a35.71,35.71,0,0,1,4.14,4.78c1.83,2.56,4,6.35,3.62,9.92-.28,3.06-2.43,6.51-5.54,7A5,5,0,0,1,1807.79,148.87ZM1802.9,129c-3.25,5.63-3.44,11.86-.47,15.89.11.15,2.4,3.21,5.38,3.92a4.85,4.85,0,0,0,1.94.09c3.06-.46,5.18-3.87,5.46-6.9.33-3.54-1.78-7.31-3.61-9.86a35.66,35.66,0,0,0-4.1-4.75Z"/>
    </g>
    <g>
      <path class="cls-6" d="M1803.37,128.83c.63,6.44-1.72,12.24-6.17,14.72-.35.19-5.1,2.76-8.37.63-2.61-1.71-3.16-5.68-2.14-8.61,2.28-6.53,13.13-10.13,13.13-10.13h0Z"/>
      <path d="M1790.4,144.89a5,5,0,0,1-1.6-.68c-2.63-1.72-3.16-5.75-2.15-8.65,1.18-3.38,4.68-6,7.41-7.53a35.65,35.65,0,0,1,5.74-2.64h0l3.56,3.41h0c.65,6.52-1.78,12.31-6.19,14.77C1797.05,143.68,1793.5,145.63,1790.4,144.89Zm9.41-19.4a35.27,35.27,0,0,0-5.7,2.62c-2.72,1.56-6.21,4.12-7.37,7.48-1,2.87-.48,6.85,2.11,8.55,3.28,2.14,8.13-.52,8.33-.63,4.37-2.44,6.78-8.19,6.15-14.66Z"/>
    </g>
    <g>
      <path class="cls-6" d="M1802.49,129.16c-5.67,3.2-12,3.36-16.24.25-.33-.25-4.76-3.61-4.21-7.51.44-3.11,3.86-5.22,7-5.46,7-.54,15,8.06,15,8.06h0Z"/>
      <path d="M1790.34,131.33a11.4,11.4,0,0,1-4.12-1.89c-.19-.14-4.78-3.59-4.22-7.55.44-3.13,3.92-5.26,7-5.49,3.62-.28,7.52,1.92,10.14,3.81a37,37,0,0,1,4.92,4.26l0,0v0l-1.59,4.67h0A17.11,17.11,0,0,1,1790.34,131.33Zm1.69-14.57a9.8,9.8,0,0,0-3-.28c-3.07.24-6.52,2.33-7,5.43-.56,3.9,4,7.32,4.19,7.46,4.13,3.06,10.48,3,16.17-.24l1.57-4.62a37.61,37.61,0,0,0-4.89-4.22A21.29,21.29,0,0,0,1792,116.76Z"/>
    </g>
    <circle class="cls-7" cx="1805.54" cy="127.64" r="9.53"/>
    <g>
      <ellipse class="cls-8" cx="1804.21" cy="124.85" rx="2.13" ry="1.08" transform="translate(1263.71 1850.72) rotate(-76.57)"/>
      <ellipse class="cls-8" cx="1807.88" cy="125.66" rx="2.13" ry="1.08" transform="translate(1265.75 1854.9) rotate(-76.57)"/>
      <g>
        <path class="cls-8" d="M1797.86,127.66a1.86,1.86,0,0,0,2.56-.69c.08-.15-.15-.28-.23-.13a1.6,1.6,0,0,1-2.2.58c-.15-.09-.27.15-.13.24Z"/>
        <path class="cls-8" d="M1812.11,131.39a1.61,1.61,0,0,1-1.79-1.4c0-.17-.28-.16-.27,0a1.88,1.88,0,0,0,2.07,1.66c.17,0,.16-.3,0-.27Z"/>
        <path class="cls-8" d="M1799.15,127.71a8.48,8.48,0,0,0,1.11,3,7.35,7.35,0,0,0,1.79,2.06,5.69,5.69,0,0,0,3.48,1.18,6.4,6.4,0,0,0,2.62-.57,6.68,6.68,0,0,0,2.55-1.95,1.56,1.56,0,0,0,.16-.2c.11-.14-.09-.33-.19-.19a6.42,6.42,0,0,1-2.4,2l-.39.18-.49.18a6.59,6.59,0,0,1-1.39.28,5.55,5.55,0,0,1-3.46-.88,6.58,6.58,0,0,1-1.92-2,8.31,8.31,0,0,1-1.14-2.75l-.06-.34c0-.16-.3-.16-.27,0Z"/>
      </g>
    </g>
  </g>
  <g>
    <g>
      <path class="cls-6" d="M953,74.07c-6.45-.54-11.73-3.9-13.37-8.72-.13-.38-1.8-5.51.89-8.35,2.15-2.26,6.15-2.08,8.85-.55,6,3.41,7.61,14.73,7.61,14.73h0Z"/>
      <path d="M953,74.11h0c-6.52-.54-11.79-4-13.41-8.74-.07-.23-1.83-5.52.9-8.4,2.17-2.28,6.23-2.07,8.9-.56,5.94,3.37,7.57,14.3,7.63,14.77v0l0,0Zm-8-18.76A6,6,0,0,0,940.57,57c-2.69,2.83-1,8.08-.87,8.3,1.61,4.73,6.83,8.14,13.31,8.68L957,71.16c-.11-.74-1.76-11.37-7.59-14.67A9,9,0,0,0,945,55.35Z"/>
    </g>
    <g>
      <path class="cls-6" d="M961.53,71.68c4.43-4.72,6.09-10.75,4.08-15.43-.16-.37-2.36-5.3-6.25-5.6-3.11-.24-6,2.57-6.94,5.51-2.18,6.57,4.22,16,4.22,16h0Z"/>
      <path d="M956.62,72.25v0c-.27-.39-6.39-9.6-4.23-16.08,1-2.92,3.85-5.79,7-5.55,4,.31,6.2,5.42,6.29,5.63,2,4.63.39,10.71-4.09,15.48h0ZM959,50.68c-3,0-5.61,2.73-6.53,5.5-1.12,3.36.08,7.52,1.28,10.41a34.52,34.52,0,0,0,2.93,5.56l4.83-.51c4.45-4.75,6-10.78,4.07-15.37-.09-.22-2.31-5.28-6.22-5.58Z"/>
    </g>
    <g>
      <path class="cls-6" d="M959.13,70c2.6-5.93,7.49-9.83,12.58-9.82.4,0,5.8.09,7.61,3.55,1.44,2.76,0,6.49-2.34,8.55-5.18,4.58-16.41,2.42-16.41,2.42h0Z"/>
      <path d="M966.54,75.21a35.55,35.55,0,0,1-6-.51h0v0L959.08,70h0c2.62-6,7.56-9.85,12.6-9.85h0c.24,0,5.81,0,7.65,3.57,1.46,2.79-.05,6.56-2.35,8.6-2.68,2.37-7,2.91-10.14,2.94Zm-5.93-.59a35.25,35.25,0,0,0,6.26.5c3.13,0,7.42-.56,10.08-2.92,2.27-2,3.77-5.74,2.33-8.49-1.81-3.47-7.33-3.52-7.57-3.52h0c-5,0-9.9,3.83-12.51,9.78Z"/>
    </g>
    <g>
      <path class="cls-6" d="M960.84,74.2c5.86-2.75,12.11-2.47,15.94.89.3.26,4.31,3.88,3.39,7.68-.73,3-4.29,4.87-7.39,4.89-6.92,0-13.95-9-13.95-9h0Z"/>
      <path d="M972.73,87.71c-6.82,0-13.64-8.63-13.93-9l0,0v0l2-4.5h0c5.92-2.78,12.2-2.43,16,.89.17.16,4.34,3.87,3.4,7.73-.73,3.06-4.35,4.9-7.43,4.93Zm-13.84-9c.46.59,7.16,8.94,13.84,8.94h0c3,0,6.62-1.85,7.35-4.86.92-3.81-3.21-7.48-3.38-7.64-3.76-3.3-10-3.64-15.88-.88Z"/>
    </g>
    <g>
      <path class="cls-6" d="M955,79.46c-1.86,6.21-.65,12.35,3.24,15.63.31.26,4.48,3.69,8.1,2.22,2.89-1.18,4.18-5,3.74-8-1-6.85-11-12.46-11-12.46h0Z"/>
      <path d="M964.46,97.71c-3.1,0-6.06-2.46-6.21-2.59-3.85-3.25-5.13-9.4-3.26-15.67v0h0l4.16-2.66h0a35.26,35.26,0,0,1,5.14,3.69c2.38,2.06,5.32,5.26,5.83,8.81.44,3-.85,6.89-3.77,8.08A5,5,0,0,1,964.46,97.71Zm-9.38-18.22c-1.86,6.23-.59,12.34,3.23,15.57.15.12,3.08,2.56,6.15,2.56a4.89,4.89,0,0,0,1.9-.36c2.87-1.16,4.14-5,3.71-8-.5-3.52-3.43-6.7-5.8-8.75a34,34,0,0,0-5.1-3.66Z"/>
    </g>
    <g>
      <path class="cls-6" d="M955.5,79.25c2.12,6.12,1.17,12.3-2.58,15.75-.3.27-4.32,3.87-8,2.55-2.93-1-4.38-4.79-4.07-7.87.69-6.88,10.41-12.91,10.41-12.91h0Z"/>
      <path d="M946.61,97.88a4.83,4.83,0,0,1-1.7-.29c-3-1.06-4.42-4.85-4.11-7.91.36-3.56,3.17-6.89,5.46-9.05a35,35,0,0,1,5-3.89l0,0h0l4.26,2.49h0c2.14,6.19,1.12,12.39-2.59,15.8C952.8,95.17,949.8,97.88,946.61,97.88Zm4.65-21a34.14,34.14,0,0,0-4.94,3.87c-2.28,2.15-5.07,5.45-5.43,9-.3,3,1.13,6.77,4.05,7.82,3.68,1.32,7.78-2.39,7.95-2.55,3.68-3.38,4.69-9.54,2.57-15.68Z"/>
    </g>
    <g>
      <path class="cls-6" d="M954.72,79.78c-4.77,4.42-10.92,6.06-15.74,4-.38-.17-5.46-2.41-5.83-6.33-.3-3.12,2.54-6,5.53-6.93,6.7-2.15,16.5,4.35,16.5,4.35h0Z"/>
      <path d="M943.41,84.7a11.32,11.32,0,0,1-4.45-.87c-.22-.1-5.48-2.38-5.86-6.36-.3-3.16,2.6-6,5.57-7,3.46-1.11,7.76.13,10.76,1.36a36.72,36.72,0,0,1,5.77,3h0v0l-.46,4.92h0A17.08,17.08,0,0,1,943.41,84.7Zm-1.74-14.56a9.75,9.75,0,0,0-3,.43c-2.94.94-5.8,3.78-5.51,6.89.37,3.92,5.59,6.19,5.81,6.28,4.74,2,10.89.46,15.68-4l.45-4.86a37.53,37.53,0,0,0-5.74-3A21.28,21.28,0,0,0,941.67,70.14Z"/>
    </g>
    <circle class="cls-7" cx="957.34" cy="77.59" r="9.53"/>
    <g>
      <ellipse class="cls-8" cx="955.4" cy="75.19" rx="1.08" ry="2.13"/>
      <ellipse class="cls-8" cx="959.15" cy="75.11" rx="1.08" ry="2.13"/>
      <g>
        <path class="cls-8" d="M949.87,79.39a1.87,1.87,0,0,0,2.33-1.26.13.13,0,0,0-.26-.07,1.59,1.59,0,0,1-2,1.07c-.16-.06-.23.2-.07.26Z"/>
        <path class="cls-8" d="M964.6,79.71a1.61,1.61,0,0,1-2.07-.95.14.14,0,0,0-.26.08,1.88,1.88,0,0,0,2.4,1.13c.16-.07.09-.33-.07-.26Z"/>
        <path class="cls-8" d="M951.14,79.14a8.27,8.27,0,0,0,1.78,2.67,7.13,7.13,0,0,0,2.21,1.59,5.78,5.78,0,0,0,3.67.34,6.57,6.57,0,0,0,2.41-1.16,6.71,6.71,0,0,0,2-2.49l.11-.24c.07-.16-.17-.3-.23-.14a6.7,6.7,0,0,1-1.87,2.5l-.34.26-.44.29a6.55,6.55,0,0,1-1.29.59,5.5,5.5,0,0,1-3.56,0,6.58,6.58,0,0,1-2.33-1.52,8.1,8.1,0,0,1-1.75-2.4c0-.11-.1-.21-.14-.32s-.33-.09-.26.07Z"/>
      </g>
    </g>
  </g>
  <g>
    <g>
      <path class="cls-6" d="M1907.16,12.22c-6.15-2-10.5-6.52-11-11.59,0-.4-.47-5.78,2.81-7.91,2.61-1.7,6.46-.6,8.73,1.51,5.06,4.72,4,16.1,4,16.1h0Z"/>
      <path d="M1907.17,12.26h0c-6.22-2-10.54-6.6-11-11.62,0-.24-.5-5.79,2.82-8,2.64-1.71,6.54-.57,8.79,1.52,5,4.66,4,15.67,4,16.14v0l0,0Zm-3.46-20.11a6,6,0,0,0-4.7.61c-3.28,2.13-2.8,7.64-2.78,7.87.46,5,4.76,9.51,10.93,11.54l4.5-1.87c.06-.75.92-11.47-4-16A9,9,0,0,0,1903.71-7.85Z"/>
    </g>
    <g>
      <path class="cls-6" d="M1916,11.87c5.41-3.57,8.43-9,7.56-14.06-.07-.4-1.07-5.71-4.79-6.9-3-1-6.39,1.12-8,3.75-3.65,5.88.38,16.58.38,16.58h0Z"/>
      <path d="M1911.09,11.28v0c-.17-.44-4-10.82-.38-16.62,1.62-2.62,5.09-4.74,8.08-3.78,3.78,1.22,4.77,6.71,4.81,6.94.86,5-2.11,10.5-7.58,14.1h0Zm7.31-20.43c-2.87-.68-6.09,1.35-7.63,3.83-1.87,3-1.67,7.33-1.17,10.42a34.78,34.78,0,0,0,1.55,6.1l4.83.62c5.42-3.58,8.38-9.08,7.52-14,0-.23-1-5.67-4.75-6.87Z"/>
    </g>
    <g>
      <path class="cls-6" d="M1914.06,9.64c3.9-5.16,9.56-7.82,14.51-6.63.4.09,5.63,1.43,6.58,5.22.76,3-1.53,6.31-4.26,7.77-6.11,3.26-16.52-1.46-16.52-1.46h0Z"/>
      <path d="M1920,16.47a34.56,34.56,0,0,1-5.69-1.89h0v0L1914,9.63v0c3.94-5.21,9.65-7.82,14.54-6.65h0c.23,0,5.64,1.4,6.61,5.25.76,3-1.58,6.37-4.29,7.82-3.16,1.68-7.48,1.2-10.54.5Zm-5.63-2a34.45,34.45,0,0,0,6,2c3,.69,7.35,1.17,10.48-.5,2.68-1.43,5-4.71,4.24-7.72-1-3.8-6.32-5.13-6.55-5.19h0c-4.86-1.16-10.52,1.43-14.44,6.61Z"/>
    </g>
    <g>
      <path class="cls-6" d="M1914.74,14.16c6.33-1.32,12.35.41,15.29,4.56.23.33,3.29,4.78,1.52,8.26-1.42,2.78-5.31,3.74-8.33,3-6.74-1.56-11.48-12-11.48-12h0Z"/>
      <path d="M1923.16,30.06c-6.63-1.59-11.26-11.56-11.46-12v0l0,0,3-3.91h0c6.4-1.33,12.42.46,15.34,4.58.13.19,3.32,4.77,1.52,8.3-1.43,2.81-5.38,3.76-8.38,3.07Zm-11.37-12c.32.69,4.9,10.36,11.39,11.91h0c3,.69,6.87-.26,8.28-3,1.78-3.48-1.38-8-1.52-8.21-2.89-4.08-8.86-5.87-15.23-4.55Z"/>
    </g>
    <g>
      <path class="cls-6" d="M1907.87,17.93c-3.25,5.6-3.5,11.85-.48,16,.24.33,3.5,4.63,7.36,4,3.09-.47,5.22-3.86,5.51-7,.63-6.89-7.75-14.66-7.75-14.66h0Z"/>
      <path d="M1912.79,37.87c-3-.72-5.32-3.8-5.43-4-3-4.06-2.81-10.34.47-16v0h0l4.67-1.63,0,0a35.71,35.71,0,0,1,4.14,4.78c1.83,2.56,4,6.35,3.62,9.92-.28,3.06-2.43,6.51-5.54,7A5,5,0,0,1,1912.79,37.87ZM1907.9,18c-3.25,5.63-3.44,11.86-.47,15.89.11.15,2.4,3.21,5.38,3.92a4.85,4.85,0,0,0,1.94.09c3.06-.46,5.18-3.87,5.46-6.9.33-3.54-1.78-7.31-3.61-9.86a35.66,35.66,0,0,0-4.1-4.75Z"/>
    </g>
    <g>
      <path class="cls-6" d="M1908.37,17.83c.63,6.44-1.72,12.24-6.17,14.72-.35.19-5.1,2.76-8.37.63-2.61-1.71-3.16-5.68-2.14-8.61,2.28-6.53,13.13-10.13,13.13-10.13h0Z"/>
      <path d="M1895.4,33.89a5,5,0,0,1-1.6-.68c-2.63-1.72-3.16-5.75-2.15-8.65,1.18-3.38,4.68-6,7.41-7.53a35.65,35.65,0,0,1,5.74-2.64h0l3.56,3.41h0c.65,6.52-1.78,12.31-6.19,14.77C1902.05,32.68,1898.5,34.63,1895.4,33.89Zm9.41-19.4a35.27,35.27,0,0,0-5.7,2.62c-2.72,1.56-6.21,4.12-7.37,7.48-1,2.87-.48,6.85,2.11,8.55,3.28,2.14,8.13-.52,8.33-.63,4.37-2.44,6.78-8.19,6.15-14.66Z"/>
    </g>
    <g>
      <path class="cls-6" d="M1907.49,18.16c-5.67,3.2-12,3.36-16.24.25-.33-.25-4.76-3.61-4.21-7.51.44-3.11,3.86-5.22,7-5.46,7-.54,15,8.06,15,8.06h0Z"/>
      <path d="M1895.34,20.33a11.4,11.4,0,0,1-4.12-1.89c-.19-.14-4.78-3.59-4.22-7.55.44-3.13,3.92-5.26,7-5.49,3.62-.28,7.52,1.92,10.14,3.81a37,37,0,0,1,4.92,4.26l0,0v0l-1.59,4.67h0A17.11,17.11,0,0,1,1895.34,20.33ZM1897,5.76a9.8,9.8,0,0,0-3-.28c-3.07.24-6.52,2.33-7,5.43-.56,3.9,4,7.32,4.19,7.46,4.13,3.06,10.48,3,16.17-.24l1.57-4.62a37.61,37.61,0,0,0-4.89-4.22A21.29,21.29,0,0,0,1897,5.76Z"/>
    </g>
    <circle class="cls-7" cx="1910.54" cy="16.64" r="9.53"/>
    <g>
      <ellipse class="cls-8" cx="1909.21" cy="13.85" rx="2.13" ry="1.08" transform="translate(1452.29 1867.63) rotate(-76.57)"/>
      <ellipse class="cls-8" cx="1912.88" cy="14.66" rx="2.13" ry="1.08" transform="translate(1454.32 1871.81) rotate(-76.57)"/>
      <g>
        <path class="cls-8" d="M1902.86,16.66a1.86,1.86,0,0,0,2.56-.69c.08-.15-.15-.28-.23-.13a1.6,1.6,0,0,1-2.2.58c-.15-.09-.27.15-.13.24Z"/>
        <path class="cls-8" d="M1917.11,20.39a1.61,1.61,0,0,1-1.79-1.4c0-.17-.28-.16-.27,0a1.88,1.88,0,0,0,2.07,1.66c.17,0,.16-.3,0-.27Z"/>
        <path class="cls-8" d="M1904.15,16.71a8.48,8.48,0,0,0,1.11,3,7.35,7.35,0,0,0,1.79,2.06,5.69,5.69,0,0,0,3.48,1.18,6.4,6.4,0,0,0,2.62-.57,6.68,6.68,0,0,0,2.55-1.95,1.56,1.56,0,0,0,.16-.2c.11-.14-.09-.33-.19-.19a6.42,6.42,0,0,1-2.4,2l-.39.18-.49.18a6.59,6.59,0,0,1-1.39.28,5.55,5.55,0,0,1-3.46-.88,6.58,6.58,0,0,1-1.92-2,8.31,8.31,0,0,1-1.14-2.75l-.06-.34c0-.16-.3-.16-.27,0Z"/>
      </g>
    </g>
  </g>
</svg>
