<svg id="Camada_1" data-name="Camada 1" xmlns="http://www.w3.org/2000/svg" viewBox="0 0 1080 1080">
  <defs>
    <style>
      .cls-1 {
        fill: #a648f7;
      }

      .cls-2 {
        fill: #fff;
      }
    </style>
  </defs>
  <g>
    <path class="cls-1" d="M297.5,565.29q-13.81-.39-22.09-7.3A42.49,42.49,0,0,1,263,540.64a78.52,78.52,0,0,1-5.13-22.88,181.05,181.05,0,0,1-.39-23.86,205.52,205.52,0,0,1,2-20.52q1.38-9.06,1.77-13,.39-6.71,2.17-19.53t4.93-29.19q3.15-16.36,7.69-34.71T286.65,341a330.66,330.66,0,0,1,13.42-32.93,117.3,117.3,0,0,1,16.17-25.84q8.86-10.44,19.13-14.79t22.09.39q13.41,5.53,22.88,20.12a171.71,171.71,0,0,1,16.17,32.15A349.79,349.79,0,0,1,408,355.64q4.73,18,9.07,29.78,10.26,28.4,19.72,57t20.52,57q2.36,6.7,4.53,13.41a60.94,60.94,0,0,1,2.76,13.41,40.73,40.73,0,0,1-1,13.21,29.72,29.72,0,0,1-6.71,12.43,46.91,46.91,0,0,1-18.34,12.42,35.66,35.66,0,0,1-21.89,1.38q-14.2-3.54-22.09-11.83a69.24,69.24,0,0,1-12.82-18.93,137.52,137.52,0,0,1-8.09-22.49A151.69,151.69,0,0,0,365.74,490a64.6,64.6,0,0,1-9.66,4.14q-6.12,2.18-12,4.74A43.26,43.26,0,0,0,334,504.74q-4.14,3.36-3.75,7.3a99.36,99.36,0,0,1,.79,12.42,90.29,90.29,0,0,1-.79,12q-2,13-10.45,21.1T297.5,565.29Zm57.2-129.77q-.79-5.13-1.38-15t-2-20.32a180.54,180.54,0,0,0-3.74-19.92q-2.37-9.46-7.1-13.8-5.13-.8-8.48,4.53a48.67,48.67,0,0,0-5.53,13.81A110.58,110.58,0,0,0,323.54,404q-.8,10.65-1.19,20.51t-.2,17.75q.19,7.89.2,11a105.83,105.83,0,0,0,16.57-7.7Q346.81,441,354.7,435.52Z"/>
    <path class="cls-1" d="M519.08,465.64q10.65.92,23.08,6.85a61.17,61.17,0,0,1,20.31,15.06,36.41,36.41,0,0,1,9.08,20.31q1.17,11.19-10.65,22.59-13,12.76-29,11.18t-30.17-12.32a105.3,105.3,0,0,1-24.85-27.16q-10.65-16.42-13-32.86a154,154,0,0,1-1.18-36.51q1.56-18.24,3.55-36.51c.52-4.25,1.18-9.28,2-15.06a118.37,118.37,0,0,0,1.18-16q0-7.29-2.36-11.41t-8.68-1.37q-8.28,4.11-15.78.46a28.33,28.33,0,0,1-12-11.19,43.34,43.34,0,0,1-5.72-17.57,35.78,35.78,0,0,1,2.56-18.71q3.75-8.65,13.22-14.6T467,284.92a73.6,73.6,0,0,1-2.57-15.07,118.61,118.61,0,0,1,0-16.65,112.67,112.67,0,0,1,2.37-16.43,80.23,80.23,0,0,1,4.53-14.38,23.56,23.56,0,0,1,7.3-10.27,16.91,16.91,0,0,1,9.47-3.65,15,15,0,0,1,9.47,3,28.19,28.19,0,0,1,8.08,9.58q3.15,5.47,3.55,14.15c.26,5.79.4,11.18.4,16.2s.13,9.13.39,12.32,1.31,4,3.16,2.52a37.2,37.2,0,0,1,14-7.76A35.65,35.65,0,0,1,542,257.08a26.38,26.38,0,0,1,12.62,5,22.3,22.3,0,0,1,7.89,11.41q3.94,13.68-.19,23a40.88,40.88,0,0,1-12.23,15.75A78.76,78.76,0,0,1,531.71,323q-10.26,4.35-18.15,8.45a114.56,114.56,0,0,1-1.18,19.62q-1.59,12.33-3.55,27.15t-3.55,30.13a208.18,208.18,0,0,0-1.19,27.83q.39,12.57,3.75,20.77T519.08,465.64Z"/>
    <path class="cls-1" d="M637.83,376.28a19.1,19.1,0,0,1-3.25,9.14,20.34,20.34,0,0,1-6,5.41,36.5,36.5,0,0,1-7.21,3.24c-2.49.81-4.77,1.61-6.86,2.41a221.19,221.19,0,0,1-24.64,8,237.66,237.66,0,0,1-25.36,5.17q.72,6.49,4.2,9.14a13,13,0,0,0,8.42,2.52,37,37,0,0,0,10.7-2,98.9,98.9,0,0,0,11.3-4.57q5.52-2.64,10.1-5.05t7-3.37q9.13-3.84,14.54-.12a17.41,17.41,0,0,1,7.1,10.58,30.05,30.05,0,0,1-.36,14.79,22.08,22.08,0,0,1-8.06,12.5,55.61,55.61,0,0,1-27.89,11.66A67.7,67.7,0,0,1,572.31,453a64.87,64.87,0,0,1-25-15,54.21,54.21,0,0,1-15-25.61,78.94,78.94,0,0,1-2.53-19.83,104.52,104.52,0,0,1,9-43.28,67.25,67.25,0,0,1,11.54-17.91,50.24,50.24,0,0,1,16.35-12,43.37,43.37,0,0,1,21.16-3.61,54.6,54.6,0,0,1,27.28,9.62,46.51,46.51,0,0,1,17.44,22.84q2.4,6.74,4.32,13.82A36.06,36.06,0,0,1,637.83,376.28ZM602,352.48q-5.54-8.89-10.94-10.46a12.69,12.69,0,0,0-10.22,1.2,26.46,26.46,0,0,0-8.65,8.54,71.52,71.52,0,0,0-6.37,11.66A55.26,55.26,0,0,0,562.33,374q-1,4.68.24,5.16c.8.48,2.65.65,5.53.48a58.89,58.89,0,0,0,9.74-1.44A83.57,83.57,0,0,0,589,374.84a36.63,36.63,0,0,0,9.74-5.29,15.11,15.11,0,0,0,5.29-7.34Q605.37,358,602,352.48Z"/>
    <path class="cls-1" d="M647,369q3.16-11.62,7.1-22.68,8.67-23.67,28.6-37.47a89.6,89.6,0,0,1,44.77-15.78q19.32-1.19,34.71,5.91A82.55,82.55,0,0,1,789,318.75,110.45,110.45,0,0,1,808,348.13a171,171,0,0,1,14.8,71,129.7,129.7,0,0,1-4.15,32.55,88.85,88.85,0,0,1-24.65,42,106.08,106.08,0,0,1-41,24.65A110.89,110.89,0,0,1,705,522.88q-24.86-3-45.76-19.14-9.84-7.49-13.21-20.51T645.44,459a28.5,28.5,0,0,1,11.64-17.35q8.86-6.11,23.86.19,3.94,1.59,11.44,5.53T709,455.62a160.1,160.1,0,0,0,18.54,7.5A60.53,60.53,0,0,0,745,466.47a21.25,21.25,0,0,0,13.81-4.14q5.71-4.33,6.9-15a388.12,388.12,0,0,1-41.62-8.48,360.32,360.32,0,0,1-40.43-13.22q-5.12-2-11.24-3.94a59,59,0,0,1-11.83-5.33,33.42,33.42,0,0,1-9.87-8.87q-4.14-5.52-5.32-15A59.11,59.11,0,0,1,647,369Zm53.84.39a24.69,24.69,0,0,0,8.68,12,59.29,59.29,0,0,0,16,8.67,137.21,137.21,0,0,0,18.35,5.53,100.07,100.07,0,0,0,16,2.36c4.73.27,7.76,0,9.07-.79q2-.78.4-8.48a91.39,91.39,0,0,0-5.72-17.35,118.86,118.86,0,0,0-10.45-19.13q-6.32-9.48-14.21-14a20.77,20.77,0,0,0-16.76-2q-8.88,2.56-17.95,17.16Q698.69,362.54,700.86,369.43Z"/>
    <path class="cls-1" d="M437.94,611c2.25,3.75,3.56,6,3.93,6.74s.31.63-.18-.37-1.32-2.37-2.44-4.12-2.06-3.31-2.81-4.69a8.76,8.76,0,0,0-1.12-1.87,49.3,49.3,0,0,0,2.62,4.31,120.45,120.45,0,0,1,11.43,27.91,151.06,151.06,0,0,1,5.24,31.67,122.18,122.18,0,0,1-2.25,31.66,78.05,78.05,0,0,1-11.42,27.92q-4.87,7.5-15.74,16.48a103.87,103.87,0,0,1-23.8,14.8,75.47,75.47,0,0,1-25.48,6.75q-12.56.94-20.79-7.68a147.84,147.84,0,0,0,.37,27.73,141.43,141.43,0,0,1,.19,28.1,54.65,54.65,0,0,1-7.87,24q-6.56,10.48-23.79,15-13.5,3.38-22.3.94a26.46,26.46,0,0,1-13.86-8.62,34.67,34.67,0,0,1-6.94-15.18,67.44,67.44,0,0,1-1.12-18.92,109.83,109.83,0,0,1,3.37-19.86,102.07,102.07,0,0,1,6.37-17.8,131.19,131.19,0,0,0,11.06-37.1,172.88,172.88,0,0,0,1.12-39.34,196.25,196.25,0,0,0-7.31-39,253.79,253.79,0,0,0-13.49-36,48,48,0,0,1-4.3-14.8,41.52,41.52,0,0,1,.75-14.8,35.08,35.08,0,0,1,6.18-13.12,33.33,33.33,0,0,1,12-9.74q7.86-4.12,13.86-3.56a19.46,19.46,0,0,1,10.5,4.12,30.66,30.66,0,0,1,7.68,9.37,107,107,0,0,1,5.8,12.55q6.38-6.36,13.12-12a61.84,61.84,0,0,1,14.24-9,43.29,43.29,0,0,1,33.72-1.13A72.8,72.8,0,0,1,419.58,588,105.58,105.58,0,0,1,437.94,611ZM379.86,714.42q8.61-2.25,6.93-1.88c-1.12.26-3.06.75-5.81,1.5s-4.87,1.38-6.37,1.88.25,0,5.25-1.5a24.36,24.36,0,0,0,13.67-9.93,53.88,53.88,0,0,0,8.06-18,88.43,88.43,0,0,0,2.62-21.92A68.56,68.56,0,0,0,401,643.22a41.61,41.61,0,0,0-9.56-16.3A22.44,22.44,0,0,0,375.74,620a20.7,20.7,0,0,0-16.87,7.12A43.19,43.19,0,0,0,349.32,646a91.76,91.76,0,0,0-2.44,24.55,74.74,74.74,0,0,0,4.31,23.79q3.94,10.68,11.06,16.86T379.86,714.42Z"/>
    <path class="cls-1" d="M509.68,556.15a44.69,44.69,0,0,1,14.4,21.1A84.73,84.73,0,0,1,528,603a128.61,128.61,0,0,1-2.69,26.35q-2.67,12.93-5.12,22.93-1.45,4.38-2.68,9.39a95.67,95.67,0,0,1-2.93,9.76,60.23,60.23,0,0,1-4.15,9.14,25.65,25.65,0,0,1-6.34,7.57,17.19,17.19,0,0,1-7.44,3.66,14.38,14.38,0,0,1-7.19-.37,13.19,13.19,0,0,1-6-4,18.46,18.46,0,0,1-3.78-7.31,19.5,19.5,0,0,1,0-10.62,51.44,51.44,0,0,1,3.9-9.26q2.44-4.52,5-9a27.28,27.28,0,0,0,3.3-9.88,27.7,27.7,0,0,0-.37-10,60.14,60.14,0,0,0-3.05-9.64q-1.95-4.75-4.15-9.39t-3.9-9.27c-1-2.76-1.91-5.73-2.8-8.9a65.57,65.57,0,0,1-2-9.51,47.39,47.39,0,0,1-.24-9.52,27.54,27.54,0,0,1,2.32-9.15,21.62,21.62,0,0,1,5.61-8.17,22.45,22.45,0,0,1,8.17-4.75,21.06,21.06,0,0,1,9.27-.86A17.33,17.33,0,0,1,509.68,556.15ZM504.07,745q-6.58,5.37-12.44,5.49a15.47,15.47,0,0,1-10-3.05,21.84,21.84,0,0,1-6.58-8.54,29,29,0,0,1-2.69-10.73,16.81,16.81,0,0,1,2.2-9.51q2.43-4.15,8.05-5.12a39.13,39.13,0,0,0,8.05-2.69,48.24,48.24,0,0,1,8.53-2.93,11.49,11.49,0,0,1,7.44.49q3.3,1.47,4.76,7.81a34.64,34.64,0,0,1,.37,15.61A21.37,21.37,0,0,1,504.07,745Z"/>
    <path class="cls-1" d="M613.51,725.68a39.28,39.28,0,0,1-20-3,68.31,68.31,0,0,1-17.11-10.74,75.93,75.93,0,0,1-13.17-14.49,67.45,67.45,0,0,1-8-14.67,137.07,137.07,0,0,1-7.85-32.92,179.43,179.43,0,0,1-.64-35.06,162,162,0,0,1,6.21-33.64,123.37,123.37,0,0,1,12.67-29A75,75,0,0,1,584.37,531a48.14,48.14,0,0,1,24.32-9.67,44.15,44.15,0,0,1,18.25,1.79q9.38,2.88,16,12.17a61.77,61.77,0,0,1,4.68,8.95,44.75,44.75,0,0,1,3,10.37,38.29,38.29,0,0,1,.25,10.74,20.73,20.73,0,0,1-3.67,9.66q-4.32,6.09-9.25,7.33a22.23,22.23,0,0,1-10.14.18,71,71,0,0,1-10.52-3,37.17,37.17,0,0,0-10.26-2.32,15.43,15.43,0,0,0-9.51,2.5q-4.56,2.87-8.36,11.45A68.1,68.1,0,0,0,585.51,603a133.55,133.55,0,0,0-3.3,31.49,61.34,61.34,0,0,0,1.9,14.84A26.68,26.68,0,0,0,589.44,660q3.54,4.13,9.63,3.76a14.71,14.71,0,0,0,8-2.51q3.93-2.49,7.73-5.36a48,48,0,0,1,7.85-4.84,12,12,0,0,1,8.37-.89q6.07,1.44,10.39,8.23A57.1,57.1,0,0,1,648,673.08q3.54,12.17,1.39,21.65a38.27,38.27,0,0,1-7.6,16.1,39,39,0,0,1-13.18,10.38A44.55,44.55,0,0,1,613.51,725.68Z"/>
    <path class="cls-1" d="M766.56,715.46q-3.75,13.86-10.68,21.92a39.55,39.55,0,0,1-15.55,11.43,48.42,48.42,0,0,1-17.8,3.37,80.9,80.9,0,0,1-17.61-1.87,84.37,84.37,0,0,1-15-4.69,74.73,74.73,0,0,1-9.55-4.68A51.1,51.1,0,0,1,663,723a60.87,60.87,0,0,1-8.05-23.6,51.36,51.36,0,0,1,2.81-24.17,38.88,38.88,0,0,1,15.55-19.3q8.24-5.62,21.54-9.74t26.42-8.81a109.48,109.48,0,0,0,23.61-11.61q10.49-6.93,12.74-18.18c.24-1.74.62-4.3,1.12-7.68a34.15,34.15,0,0,0,.19-9.37,9.25,9.25,0,0,0-3.19-6.37q-2.62-2.05-8.24.57a26.51,26.51,0,0,0-7.87,7.12,104.94,104.94,0,0,0-6.37,9.55c-2,3.37-4,6.69-6,9.93a33,33,0,0,1-7.12,8.25q-7.12,6-14.62,6.18A26.46,26.46,0,0,1,691.24,622a47,47,0,0,1-12.36-10.68,50.51,50.51,0,0,1-8.62-14.8,45.42,45.42,0,0,1-3-15.93,24.15,24.15,0,0,1,4.5-14.24A62.22,62.22,0,0,1,692,547.4a85.2,85.2,0,0,1,25.67-9.74,100.37,100.37,0,0,1,28.1-1.69,116.82,116.82,0,0,1,27.12,5.25q14.86,4.5,22.11,15a64.76,64.76,0,0,1,10,23.6,124.68,124.68,0,0,1,2.6,27.55q-.2,14.43-.19,26.79,0,13.13.38,26.79a92.92,92.92,0,0,0,4.5,26.42q3.36,9.75,6.55,20.23A53.84,53.84,0,0,1,820.92,729a32.09,32.09,0,0,1-3.37,10.3,26.42,26.42,0,0,1-6.74,8.43,20,20,0,0,1-9.14,4.31,17.14,17.14,0,0,1-10.58-1.68,35.14,35.14,0,0,1-15.24-15.18Q770.65,725.21,766.56,715.46Zm-3.72-74.19a62.74,62.74,0,0,0-15,6.18,101.79,101.79,0,0,0-16.48,11.24,74.92,74.92,0,0,0-13.49,14.61q-5.62,8.07-5.62,15.93a21.23,21.23,0,0,0,1.12,6.75,17.31,17.31,0,0,0,3.19,5.8,11.93,11.93,0,0,0,5.06,3.56,10.14,10.14,0,0,0,7.11-.37,42,42,0,0,0,17.62-10.12,46.57,46.57,0,0,0,10.3-15.55,76.87,76.87,0,0,0,4.87-18.55A146.43,146.43,0,0,0,762.84,641.27Z"/>
    <g>
      <path class="cls-2" d="M396.62,813a29.85,29.85,0,0,1-3.84-15.17,28.11,28.11,0,0,1,2.85-13.12,15,15,0,0,1,7.86-7.45c3.35-1.35,7.09-1.25,11.23.19a12.7,12.7,0,0,1,6,4.24,10.75,10.75,0,0,1,2.31,6.79c0,3-1.28,6.33-3.83,9.87a2.46,2.46,0,0,1-2.78.57,4.8,4.8,0,0,1-2.38-1.74,4.36,4.36,0,0,1-.92-2.58,3,3,0,0,1,.39-1.58,15.07,15.07,0,0,0,2.05-3.18,7.43,7.43,0,0,0,.86-3.21,2.54,2.54,0,0,0-1.85-2.62,8.69,8.69,0,0,0-7.73.63,14,14,0,0,0-5.49,6.81,26.19,26.19,0,0,0-2,10.25,19.61,19.61,0,0,0,1.79,8.69,11.66,11.66,0,0,0,6.14,5.58,19.91,19.91,0,0,0,13.81.52,23.8,23.8,0,0,0,11.57-7.2,2.78,2.78,0,0,1,2.77-1,3.64,3.64,0,0,1,2,1.09,3.73,3.73,0,0,1,1.32,2.7,3.08,3.08,0,0,1-.8,2,28.64,28.64,0,0,1-14.27,9.3,24,24,0,0,1-16.52-.76A22.19,22.19,0,0,1,396.62,813Z"/>
      <path class="cls-2" d="M431.84,827.73a4.23,4.23,0,0,1-1.13-2.34q-1.05-10.78-1-19a104,104,0,0,1,2.11-21.25,2.89,2.89,0,0,1,3.31-2.06,3.6,3.6,0,0,1,2.57,1.59,4.14,4.14,0,0,1,.6,3,101.16,101.16,0,0,0-2,18,71.14,71.14,0,0,1,9.12-15c3.44-4.25,7.14-6.35,11.1-6.33,4.5,0,7.8,3.4,9.92,10.42a3.12,3.12,0,0,1-.47,2.93,3.26,3.26,0,0,1-2.7,1.59,3.17,3.17,0,0,1-2-.6,2.84,2.84,0,0,1-1.19-1.69,19.26,19.26,0,0,0-1.72-4.47,2.74,2.74,0,0,0-2.37-1.58c-2,0-4.54,2.16-7.54,6.43a70.77,70.77,0,0,0-7.79,14.76c-2.21,5.6-3.31,10.25-3.31,14a2.86,2.86,0,0,1-1,2.3,2.73,2.73,0,0,1-2.31.61A3.79,3.79,0,0,1,431.84,827.73Z"/>
      <path class="cls-2" d="M469.63,825.43c-2.95-2.85-4.42-6.72-4.42-11.47A31.81,31.81,0,0,1,468,801.5a36.25,36.25,0,0,1,7.47-11.3c3.13-3.21,6.45-5.08,10-5.64a8.7,8.7,0,0,1,6.67,1.29,6.62,6.62,0,0,1,2.71,5.76c0,4-2.23,8.19-6.67,12.26a56.55,56.55,0,0,1-16.32,10.28,8.92,8.92,0,0,0,2.31,6.32c1.54,1.65,3.81,2.3,6.8,1.89,3.62-.49,7.76-2.46,12.43-6A50,50,0,0,0,505,804.23a5.43,5.43,0,0,1,2.91-2.54,3,3,0,0,1,1.45,0c1.32.64,2,1.45,2,2.42a3,3,0,0,1-.53,1.71,52.74,52.74,0,0,1-14.14,15.9q-8.32,6.06-15.59,7.05C476.4,829.46,472.59,828.29,469.63,825.43ZM486.22,797c1.32-1.8,2-3.24,2-4.3a1.47,1.47,0,0,0-.66-1.34,2.94,2.94,0,0,0-2-.2q-4.23.66-7.47,5.35A41,41,0,0,0,473,806.64C479.35,803.46,483.75,800.11,486.22,797Z"/>
      <path class="cls-2" d="M537.56,824.8a2.18,2.18,0,0,1-1.12-1.72q-1.07-11.87-1.19-20.81a47.81,47.81,0,0,1-8.13,13.28,21.15,21.15,0,0,1-10.37,6.38q-5.55,1.46-8.86-1.6c-2.2-2-3.3-5.13-3.3-9.27a34.11,34.11,0,0,1,3.3-13.86,45.71,45.71,0,0,1,8.66-13q5.36-5.62,11-7.23a13.94,13.94,0,0,1,9,.48,2,2,0,0,1,1.46,2.23,3.61,3.61,0,0,1-.53,2,4.75,4.75,0,0,1-2.78,2.25,3.33,3.33,0,0,1-1.85,0,8.45,8.45,0,0,0-5.15-.13,17,17,0,0,0-8.06,5.58,37.36,37.36,0,0,0-6.22,10,25.49,25.49,0,0,0-2.37,9.78,8,8,0,0,0,1.45,5.12q1.46,1.82,4.23,1.1,5.55-1.46,10.44-9.71a71.4,71.4,0,0,0,7.53-18.13,4.46,4.46,0,0,1,3.7-3.31,2.72,2.72,0,0,1,2.32.25,2.3,2.3,0,0,1,1,2.09q0,16.92,1.32,34a3.91,3.91,0,0,1-.93,2.78,4.72,4.72,0,0,1-2.38,1.75A2.7,2.7,0,0,1,537.56,824.8Z"/>
      <path class="cls-2" d="M550.58,804.76q-3.17-5-3.17-14.87,0-11.76,3.7-27.91a85.17,85.17,0,0,1-10,3.72,2.69,2.69,0,0,1-2.38-.23,2.41,2.41,0,0,1-.93-2.12,4.19,4.19,0,0,1,.93-2.64,4.49,4.49,0,0,1,2.38-1.62,83.57,83.57,0,0,0,11.76-4.61,102.43,102.43,0,0,1,4.76-14.71,4.53,4.53,0,0,1,1.91-2.2,3.28,3.28,0,0,1,2.18-.68c1.41.14,2.12,1,2.12,2.58a8.09,8.09,0,0,1-.27,1.53,63.35,63.35,0,0,0-3.3,9.91c.53-.23,1.61-.8,3.24-1.7s3.59-2.09,5.88-3.59a2.85,2.85,0,0,1,2.84-.29,2.34,2.34,0,0,1,1.39,2.35,4.16,4.16,0,0,1-.66,2.15,4.29,4.29,0,0,1-1.72,1.64l-2.45,1.38-2,1.15q-5,3-8.46,4.61Q554,776.21,554,788.37a26.79,26.79,0,0,0,1.58,10.12q1.59,3.76,5.69,2.61a17.19,17.19,0,0,0,8.39-5.54,27.66,27.66,0,0,0,5.35-9.27,3.76,3.76,0,0,1,1.19-1.5,4.94,4.94,0,0,1,1.85-1,2.12,2.12,0,0,1,1.59.14,2.32,2.32,0,0,1,1.45,2.42,2.88,2.88,0,0,1-.26,1.38,43.45,43.45,0,0,1-8.13,12.43,25.34,25.34,0,0,1-11.83,7.52C556.13,809,552.7,808.07,550.58,804.76Z"/>
      <path class="cls-2" d="M577.34,797.79q-2.83-4.23-2.84-11.76,0-7.93,3.18-22.88a4.64,4.64,0,0,1,1.25-2.16,4.28,4.28,0,0,1,2.05-1.3,2.32,2.32,0,0,1,2.51.73,3,3,0,0,1,.66,2.62q-3,14.19-3,21.6c0,7,1.63,10,4.89,9.3q5.41-1.23,10.24-7.31a42.37,42.37,0,0,0,6.81-11.38,4.46,4.46,0,0,1,1.32-1.93,3.71,3.71,0,0,1,1.85-.94,2.66,2.66,0,0,1,2.71,1.07,3.1,3.1,0,0,1,.46,3,32.07,32.07,0,0,1-4.89,9.49,49.68,49.68,0,0,1-8.65,9.45,24,24,0,0,1-10,5.34C582.08,801.57,579.24,800.62,577.34,797.79Zm4.1-46.14a5.21,5.21,0,0,1-.73-3,8.81,8.81,0,0,1,1.26-4.6,4.87,4.87,0,0,1,3-2.48,1.77,1.77,0,0,1,2,.79,5.47,5.47,0,0,1,.73,3.07A8.07,8.07,0,0,1,586.4,750a5.07,5.07,0,0,1-2.91,2.39A1.81,1.81,0,0,1,581.44,751.65Z"/>
      <path class="cls-2" d="M615.14,802.44a7.78,7.78,0,0,1-1.52-2c-1-2.89-2.51-6.85-4.62-11.85q-3.32-8-5.16-13.32a62.55,62.55,0,0,1-2.77-12.16,3.44,3.44,0,0,1,.72-2.7,3.67,3.67,0,0,1,2.45-1.66,2.89,2.89,0,0,1,2.18.53,2.62,2.62,0,0,1,1.12,1.89c.09,2.45,1.26,7.08,3.5,13.93a114.83,114.83,0,0,0,5.75,15c5.29-16.17,8.55-26.32,9.78-30.78a3.08,3.08,0,0,1,.93-2.68,3.51,3.51,0,0,1,2.38-1,3,3,0,0,1,1.78.57,3.76,3.76,0,0,1,1.26,1.39,11.67,11.67,0,0,0,5.28,5.72,21.92,21.92,0,0,0,8.59,2.52,30.29,30.29,0,0,0,6,0c2-.18,3.19-.24,3.63-.25a4.22,4.22,0,0,1,2.38,1.38,3.57,3.57,0,0,1,1.06,2.46,2.75,2.75,0,0,1-.66,1.84,2.32,2.32,0,0,1-1.59.88,54.84,54.84,0,0,1-11,.39,30.21,30.21,0,0,1-8.72-2.12,23.3,23.3,0,0,1-6.61-4q-2.64,7.83-6.21,19.27c-2.38,7.65-3.83,12.45-4.36,14.34s-1.81,3-3.57,3.2A2.55,2.55,0,0,1,615.14,802.44Z"/>
      <path class="cls-2" d="M655.05,793.68a18.83,18.83,0,0,1-4.43-12.42,27.89,27.89,0,0,1,2.78-11.9,22.76,22.76,0,0,1,7.47-9.24,10.93,10.93,0,0,1,10-1.66,13.44,13.44,0,0,1,6.68,4.73,11.81,11.81,0,0,1,2.71,7.33c0,4.07-2.23,6.78-6.68,8.57A70.17,70.17,0,0,1,657.23,783a11.46,11.46,0,0,0,9.12,11.32,29.21,29.21,0,0,0,12.42.17A26.44,26.44,0,0,0,690.4,790a2.5,2.5,0,0,1,2.91-.32,6.23,6.23,0,0,1,1.46,1.2c1.32,1.71,2,3.07,2,4a1.45,1.45,0,0,1-.53,1.28,24.92,24.92,0,0,1-14.14,5.64,43,43,0,0,1-15.6-1A21.49,21.49,0,0,1,655.05,793.68Zm16.59-22.42c1.32-1.17,2-2.26,2-3.32a2.47,2.47,0,0,0-.66-1.67,4.31,4.31,0,0,0-2-1.17c-2.83-.87-5.31-.1-7.47,2.24a25.58,25.58,0,0,0-5.09,8.46C664.76,774.51,669.17,773.22,671.64,771.26Z"/>
    </g>
  </g>
</svg>
